<?xml version="1.0" encoding="utf-8"?>
<!-- Generator: Adobe Illustrator 26.0.3, SVG Export Plug-In . SVG Version: 6.00 Build 0)  -->
<svg version="1.1" id="Layer_1" xmlns="http://www.w3.org/2000/svg" xmlns:xlink="http://www.w3.org/1999/xlink" x="0px" y="0px"
	 viewBox="0 0 1082 590.9" style="enable-background:new 0 0 1082 590.9;" xml:space="preserve">
<style type="text/css">
	.st0{fill:#3F3D56;}
	.st1{opacity:0.1;enable-background:new    ;}
	.st2{fill:#61AB43;}
	.st3{fill:#EA565C;}
	.st4{opacity:0.2;fill:#FFFFFF;enable-background:new    ;}
	.st5{fill:#714B4F;}
	.st6{opacity:0.1;fill:none;stroke:#000000;stroke-width:2;stroke-miterlimit:10;enable-background:new    ;}
	.st7{fill:#F6C964;}
	.st8{fill:#F2F2F2;}
</style>
<path class="st0" d="M348.7,463.9c0,0-37.4,74.1-5.6,74.1s433.4,1.6,444.6-19.1c7.8-14.5,3.5-66.2,0.2-95.8
	c-1.3-12-11.8-20.8-23.8-20.1c-86.8,4.8-411.3,22.6-409.9,20.3c2.8-4.4,0.8-3.2,0.8-3.2S342.3,460.7,348.7,463.9z"/>
<path class="st1" d="M788.7,423c-1.3-12-11.8-20.8-23.8-20.1c-86.8,4.8-411.3,22.6-409.9,20.3c2.8-4.4,0.8-3.2,0.8-3.2
	s-2.8,9.1-5.2,19c0.3,0,0.6,0.3-0.5,2.2c-0.1,0.4-0.2,0.9-0.3,1.3c13,1.3,324.6-15.8,409.4-20.5c12-0.7,22.5,8.2,23.8,20.1
	c2.4,22,5.4,56.2,3.6,78.3c0.7-0.4,1.3-0.9,1.7-1.6C796.3,504.3,792,452.6,788.7,423z"/>
<path class="st2" d="M393.3,352.8c-4.2-1.3-9.4-2.9-8.9-5.6c0.3-1.4,2.2-2.5,3.5-3.7c2.7-2.3,3.4-5.5,0.5-7.8s-9.7-2.5-12.3-0.2
	c-1.3,1.2-1.2,2.7-1.9,4.1c-2.1,4.3-10.5,6.1-17.7,7.8s-15.2,4.7-14.5,9.1c0.7,4.8,11.8,9.1,7.4,13.2c-1.6,1.5-5,2.3-5.7,4
	c-0.5,1.2,0.5,2.4,1.5,3.5l7.1,7.8c2.8,3.1,5.7,6.5,4.8,9.9c-1.9,6.8-17,9.4-29,8.7c-4.4-0.3-9.6-0.7-12.6,1.2
	c-2.3,1.4-2.3,3.6-1.5,5.5c2,4.9,8.4,9.1,16.5,11c-9.1,1.8-12.7,9.4-6.4,13.6c-3.6,1.2-7.5,1.4-11.2,0.3c-3.1,2.9-1.3,6.8,2.7,9.3
	s9.6,3.9,15,5.3l-5.1,4.7c3.7,2.9,11.6,1.9,17,0s11.2-4.3,17.2-3.3c5.6,0.9,9.9,4.6,15.6,4c4.4-0.5,6.6-3.4,7.9-5.8l5.9-10.5
	c8.4,1.3,17.2-4.4,13.8-9c9.4,1,18.6-5.1,15.5-10.2c5,3.8,8.5,8.3,10.2,13c0.8,2.1,1.2,4.3,3.3,6.1c2.8,2.1,6.3,2.7,9.7,1.7
	c-1.7,3.3-3.1,7.2,0.4,10s13.6,2,13.2-1.4c5.4,2.3,11.3,4.5,18,4.6s14-2.4,14.6-6.2c9.4,3.1,19.3,4.7,29.2,4.7
	c0.8-2.6,6.7-3.4,11.1-2.8s8.5,2.1,13,2.1s9.4-2.7,7.1-5c9.6,2,19.4,2.5,29.1,1.5c9.2-1,17.8-3.3,27.1-3.8
	c9.4-0.6,18.8,0.9,27.6,4.4c3,1.3,6.8,2.9,10.2,1.9c1.9-0.6,2.8-1.8,4.1-2.8c5.5-4.2,16.9-3.4,25.6-1.7s18.9,3.6,26.6,0.7
	c2.9-1.1,5-2.8,8.1-3.7c11-3.3,24.2,5.2,35.9,2.7c3.8-0.8,6.9-2.7,10.9-2.9c7.2-0.4,11.9,4.4,18.8,5.5c7.2,1.1,15-3.3,13.3-7.5
	c6.9,0.2,13.9-0.8,20.5-2.8l-3.3-5.9c8.2-0.1,14.2-6,10.4-10.1c8.2-1.6,14.7-5.8,16.3-10.6s-1.5-10.1-8-13.4
	c-3.8-1.9-8.9-3.2-11.1-5.9c-1.6-1.9-1.4-4.1-2-6.2c-1.3-4.5-7.2-8.5-14.7-10.1c-3.3-0.7-6.9-0.9-9.8-2s-5.1-3.3-3.4-5
	c0.9-0.9,2.7-1.5,3.8-2.3c4.6-3.4-3.3-7.7-10-9.6l16-0.5l3.4-15.6c-6.3,5.2-22.8,4.1-26.9-1.8c5.1,1.7,12-0.5,14.6-3.5
	s1.9-6.6,1.2-10c-0.1-1.7-1.1-3.2-2.7-4c-1.6-0.7-4.1-1.1-4.6-2.2c-0.5-1.2,1.5-2.2,1.8-3.3c0.6-2.3-4.6-3.3-8.1-4.3
	c-8.3-2.6-12.3-9.8-21.7-9.6c-9.3,0.2-12,7.4-12,12.7s-3.2,12.5-12.5,12.4c-3.7,0-7-1.4-10-2.7L686,313.2c-3.5-1.6-7.2-3-11-3.9
	c-5.4-1.3-11.4-1.4-17.2-1.5l-37.5-0.9c-1.9-0.1-3.8,0-5.7,0.5c-2,0.7-2.9,2-4.1,3.1c-5.2,4.9-17.5,6.8-26.3,4.1
	c-2.3-0.7-4.5-1.7-6.9-2.2c-7.8-1.7-16.1,1.4-24.2,2.6c-13.3,1.9-29.9-1.3-39.5,4.3c-3.2,1.9-4.9,4.4-7.9,6.4s-8.3,3.3-12.1,1.8
	c0.5,3.7,0.9,7.5-1.6,10.8s-8.8,6.1-15.1,5.3c-3.3-0.9-3-3.7-1.5-5.5s4-3.8,3.2-5.8c-0.8-2-4.3-3.2-7-4.6s-4.4-4.1-1.6-5.4
	c-1.9-2.4-8.7-2.1-11.7-0.1s-3.3,4.9-3.6,7.6s-1,5.6-4.5,7.4c-5.9,3-17.3,1.5-21.2,5.4c-1.2,1.3-1.3,2.8-2,4.2
	c-3.2,6.2-16.9,7.8-28.2,8.3c-0.2,1.3-0.3,2.6-0.2,3.9C402.5,357,396.1,353.7,393.3,352.8z"/>
<path class="st1" d="M782.5,345.8c0.7,3.4,1.3,6.9-1.2,10c-0.4,0.4-0.8,0.8-1.3,1.2c3.4-0.1,6.8-0.2,10.1-0.3
	c1.1-5.2,2.3-10.4,3.4-15.6c-2.6,2.1-7,3.2-11.5,3.3C782.3,344.8,782.4,345.3,782.5,345.8z"/>
<path class="st1" d="M785.5,364.1c-0.4-2.1-3.9-4.2-7.8-5.8c-3.4,1.6-7.3,2-11,1C769.6,363.3,778.3,365.1,785.5,364.1z"/>
<path class="st1" d="M790.4,375.5c-0.1,0.4-0.2,0.8-0.3,1.2c-5.3,0.2-10.7,0.3-16,0.5c6.7,1.9,14.6,6.2,10,9.6
	c-1.1,0.8-2.9,1.4-3.8,2.3c-1.7,1.7,0.4,4,3.4,5s6.6,1.3,9.8,2c7.6,1.6,13.4,5.6,14.7,10.1c0.6,2.1,0.4,4.3,2,6.2
	c2.2,2.6,7.3,4,11.1,5.9c0.4,0.2,0.7,0.4,1.1,0.6c3.5-2,6-4.5,6.9-7.3c1.7-4.8-1.5-10.1-8-13.4c-3.8-1.9-8.9-3.2-11.1-5.9
	c-1.6-1.9-1.4-4.1-2-6.2c-1.3-4.5-7.2-8.5-14.7-10.1C792.6,375.8,791.5,375.6,790.4,375.5z"/>
<path class="st1" d="M321.4,447.2c1.2-2.7,4.4-5,9-5.9c-4.4-0.9-8.5-2.8-12.1-5.4c-1.9,0.1-3.7-0.2-5.5-0.7
	c-3.1,2.9-1.3,6.8,2.7,9.3C317.3,445.7,319.3,446.6,321.4,447.2z"/>
<path class="st1" d="M349.6,369.6c2.3-0.9,4.6-1.5,7-2.1c7.2-1.7,15.6-3.5,17.7-7.8c0.7-1.4,0.6-2.9,1.9-4.1
	c2.5-2.4,9.4-2.1,12.3,0.2s2.1,5.5-0.5,7.8c-1.4,1.2-3.3,2.3-3.5,3.7c-0.5,2.7,4.8,4.3,8.9,5.6c2,0.6,3.8,1.6,5.4,2.9
	c0-0.3,0.1-0.6,0.1-0.8c11.2-0.5,25-2.1,28.2-8.3c0.7-1.4,0.8-2.9,2-4.2c3.9-4,15.3-2.4,21.2-5.4c3.5-1.8,4.2-4.7,4.5-7.4
	s0.6-5.5,3.6-7.6c3-2,9.8-2.3,11.7,0.1c-2.8,1.3-1,4,1.6,5.4s6.2,2.6,7,4.6c0.8,2-1.6,4-3.2,5.8c-1.6,1.9-1.8,4.7,1.5,5.5
	c6.2,0.9,12.6-1.9,15.1-5.3s2-7.2,1.6-10.8c3.7,1.5,9.1,0.2,12.1-1.8s4.7-4.5,7.9-6.4c9.6-5.6,26.2-2.4,39.5-4.3
	c8.1-1.1,16.4-4.3,24.2-2.6c2.5,0.5,4.6,1.5,6.9,2.2c8.9,2.7,21.1,0.8,26.3-4.1c1.2-1.1,2.1-2.4,4.1-3.1c1.9-0.5,3.8-0.6,5.7-0.5
	c12.5,0.3,25,0.6,37.5,0.9c5.8,0.1,11.8,0.3,17.2,1.5c3.8,1,7.5,2.3,11,3.9c8.9,3.9,17.9,7.7,26.8,11.6c3,1.3,6.2,2.6,10,2.7
	c9.4,0.1,12.5-7.1,12.5-12.4s2.6-12.5,12-12.7c9.4-0.2,13.4,7,21.7,9.6c3.5,1.1,8.7,2.1,8.1,4.3c-0.3,1-1.9,2-1.9,3
	c2.3-0.5,4.5-1.8,6.1-3.5c2.5-3.1,1.9-6.6,1.2-10c-0.1-1.7-1.1-3.2-2.7-4c-1.6-0.7-4.1-1.1-4.6-2.2c-0.5-1.2,1.5-2.2,1.8-3.3
	c0.6-2.3-4.6-3.3-8.1-4.3c-8.3-2.6-12.3-9.8-21.7-9.6c-9.3,0.2-12,7.4-12,12.7s-3.2,12.5-12.5,12.4c-3.7,0-7-1.4-10-2.7
	c-8.9-3.9-17.9-7.7-26.8-11.6c-3.5-1.6-7.2-3-11-3.9c-5.4-1.3-11.4-1.4-17.2-1.5c-12.5-0.3-25-0.6-37.5-0.9c-1.9-0.1-3.8,0-5.7,0.5
	c-2,0.7-2.9,2-4.1,3.1c-5.2,4.9-17.5,6.8-26.3,4.1c-2.3-0.7-4.5-1.7-6.9-2.2c-7.8-1.7-16.1,1.4-24.2,2.6
	c-13.3,1.9-29.9-1.3-39.5,4.3c-3.2,1.9-4.9,4.4-7.9,6.4s-8.3,3.3-12.1,1.8c0.5,3.7,0.9,7.5-1.6,10.8s-8.8,6.1-15.1,5.3
	c-3.3-0.9-3-3.7-1.5-5.5s4-3.8,3.2-5.8c-0.8-2-4.3-3.2-7-4.6s-4.4-4.1-1.6-5.4c-1.9-2.4-8.7-2.1-11.7-0.1c-3,2-3.3,4.9-3.6,7.6
	s-1,5.6-4.5,7.4c-5.9,3-17.3,1.5-21.2,5.4c-1.2,1.3-1.3,2.8-2,4.2c-3.2,6.2-16.9,7.8-28.2,8.3c0,0.3-0.1,0.6-0.1,0.8
	c-1.6-1.3-3.5-2.2-5.4-2.9c-4.2-1.3-9.4-2.9-8.9-5.6c0.3-1.4,2.2-2.5,3.5-3.7c2.7-2.3,3.4-5.5,0.5-7.8s-9.7-2.5-12.3-0.2
	c-1.3,1.2-1.2,2.7-1.9,4.1c-2.1,4.3-10.5,6.1-17.7,7.8s-15.2,4.7-14.5,9.1C342.8,361.3,353.5,365.5,349.6,369.6z"/>
<path class="st1" d="M330.4,421.3c-2,0.4-3.9,1.1-5.6,2.2c1.1,0,2.1,0.1,3.2,0.2c12,0.8,27.1-1.8,29-8.7c0.9-3.4-2-6.8-4.8-9.9
	c-1.1-1.2-2.3-2.5-3.4-3.7c-5.9,2-13.9,2.7-20.9,2.2c-4.4-0.3-9.6-0.7-12.6,1.2c-2.3,1.4-2.3,3.6-1.5,5.5
	C315.9,415.2,322.2,419.4,330.4,421.3z"/>
<ellipse class="st3" cx="574.8" cy="311.2" rx="119.5" ry="78.9"/>
<path class="st4" d="M534.2,305.7c0,0-54.2,5.6-38.2-17.5s35.9-31.1,45.4-24.7s13.5,23.9,12,23.9s-24.7-13.5-32.7-3.2
	S534.2,305.7,534.2,305.7z"/>
<path class="st4" d="M581.1,307.9c0,0,44.7,31.1,17.6,38.2s-47.4,0.2-50.5-10.8s5.3-27,6.5-25.9s9.9,26.4,22.7,23.7
	S581.1,307.9,581.1,307.9z"/>
<path class="st4" d="M591.5,288.4c0,0,3.5-54.3,23.7-34.8s24.7,40.5,16.8,48.9s-25.8,9.4-25.6,7.8s17.5-22.1,8.6-31.7
	S591.5,288.4,591.5,288.4z"/>
<ellipse class="st3" cx="430.6" cy="304.9" rx="119.5" ry="78.9"/>
<path class="st4" d="M390,299.3c0,0-54.2,5.6-38.2-17.5s35.9-31.1,45.4-24.7s13.5,23.9,12,23.9s-24.7-13.5-32.7-3.2
	S390,299.3,390,299.3z"/>
<path class="st4" d="M436.9,301.5c0,0,44.7,31.1,17.6,38.2s-47.4,0.2-50.5-10.8s5.3-27,6.5-25.9s9.9,26.4,22.7,23.7
	S436.9,301.5,436.9,301.5z"/>
<path class="st4" d="M447.3,282.1c0,0,3.5-54.3,23.7-34.8c20.1,19.6,24.7,40.5,16.8,48.9s-25.8,9.4-25.6,7.8s17.5-22.1,8.6-31.7
	S447.3,282.1,447.3,282.1z"/>
<path class="st1" d="M492.8,237.7c26,14.5,42.6,36.1,42.6,60.4c0,43.6-53.5,78.9-119.5,78.9c-22.6,0-43.8-4.1-61.8-11.4
	c20.8,11.6,47.6,18.5,76.9,18.5c66,0,119.5-35.3,119.5-78.9C550.5,276.6,527.4,251.6,492.8,237.7z"/>
<path class="st1" d="M637,243.3c26,14.5,42.6,36.1,42.6,60.4c0,43.6-53.5,78.9-119.5,78.9c-22.6,0-43.8-4.1-61.8-11.4
	c20.8,11.6,47.6,18.5,76.9,18.5c66,0,119.5-35.3,119.5-78.9C694.7,282.2,671.6,257.1,637,243.3z"/>
<path class="st5" d="M358,289.7c0,0,102.8-109.9,354.5-64.5c199,35.9,35.6,97.7-41.6,122c-22.4,7.1-45.6,11.2-69.1,12.4
	C514.7,364.1,295.6,368.1,358,289.7z"/>
<path class="st1" d="M670.9,322.5c-22.4,7.1-45.6,11.2-69.1,12.4c-70.6,3.6-227.7,7-251.7-33.6c-30.3,65.5,169.5,61.7,251.7,57.5
	c23.5-1.2,46.7-5.4,69.1-12.4c56.6-17.8,159.5-55.8,132.1-88.9C784.4,283.5,714.1,308.9,670.9,322.5z"/>
<line class="st6" x1="577.5" y1="225.6" x2="605.3" y2="280.6"/>
<line class="st6" x1="491.4" y1="245.5" x2="515.3" y2="291.7"/>
<line class="st6" x1="627.6" y1="225.6" x2="665.1" y2="280.6"/>
<line class="st6" x1="491.4" y1="296.5" x2="742.4" y2="264.7"/>
<line class="st6" x1="732.8" y1="236" x2="750.3" y2="260.7"/>
<line class="st6" x1="442" y1="264.7" x2="453.2" y2="287.8"/>
<path class="st7" d="M479.5,189.8c0,0,229.2-1,231.3-3.1s50.5-3.2,59.9,10.3s12.6,19.7,0,21.8S342.8,433.4,342.8,433.4
	s-23.1,2.1-11.6-20.7S479.5,189.8,479.5,189.8z"/>
<path class="st2" d="M575.7,284.6c0,8.6-41.4,29.5-92.4,29.5s-92.4-20.9-92.4-29.5s41.4-12,92.4-12S575.7,276,575.7,284.6z"/>
<ellipse class="st2" cx="483.3" cy="284.2" rx="92.4" ry="15.5"/>
<path class="st2" d="M687.2,270.3c0,8.6-41.4,29.5-92.4,29.5s-92.4-20.9-92.4-29.5s41.4-12,92.4-12S687.2,261.7,687.2,270.3z"/>
<ellipse class="st2" cx="594.8" cy="269.9" rx="92.4" ry="15.5"/>
<path class="st2" d="M798.8,255.9c0,8.6-41.4,29.5-92.4,29.5s-92.4-20.9-92.4-29.5s41.4-12,92.4-12S798.8,247.3,798.8,255.9z"/>
<ellipse class="st2" cx="706.3" cy="255.5" rx="92.4" ry="15.5"/>
<path class="st0" d="M366,260.3c0,0-38-6.2-18.6-37.1s26-65.6,34.5-73.4c9.5-8.7,205.3-160.5,357.9,7.5c16.2,18,29.3,38.5,38.9,60.8
	c1.8,4.2,3.9,8,5.9,10c6.2,6.2,11.5,23.9,0,32.7S434.5,304.1,366,260.3z"/>
<path class="st8" d="M544.1,131.7c-2.3,1.6-5.1,2.5-8,2.7c-4.4,0-8-1.2-8-2.7s3.6-2.7,8-2.7C539,129.2,541.8,130.1,544.1,131.7z"/>
<path class="st8" d="M480.5,114.9c-2.3,1.6-5.1,2.5-8,2.7c-4.4,0-8-1.2-8-2.7s3.6-2.7,8-2.7C475.4,112.4,478.1,113.3,480.5,114.9z"
	/>
<path class="st8" d="M653.4,139.4c-2.7,0.9-5.6,0.9-8.4,0.2c-4.2-1.3-7.2-3.5-6.8-4.9s4.2-1.5,8.4-0.2
	C649.2,135.4,651.6,137.1,653.4,139.4z"/>
<path class="st8" d="M535.8,94.3c-2.7,0.9-5.6,0.9-8.4,0.2c-4.2-1.3-7.2-3.5-6.8-4.9s4.2-1.5,8.4-0.2
	C531.7,90.4,534,92.1,535.8,94.3z"/>
<path class="st8" d="M664,110.2c-2.7,0.9-5.6,0.9-8.4,0.2c-4.2-1.3-7.2-3.5-6.8-4.9s4.2-1.5,8.4-0.2
	C659.9,106.3,662.2,108,664,110.2z"/>
<path class="st8" d="M637.8,107.9c-2.3,1.6-5.1,2.5-8,2.7c-4.4,0-8-1.2-8-2.7s3.6-2.7,8-2.7C632.7,105.3,635.5,106.2,637.8,107.9z"
	/>
<path class="st8" d="M561.8,91.9c-2.3,1.6-5.1,2.5-8,2.7c-4.4,0-8-1.2-8-2.7s3.6-2.7,8-2.7C556.7,89.4,559.4,90.3,561.8,91.9z"/>
<path class="st8" d="M620.1,91.9c-2.3,1.6-5.1,2.5-8,2.7c-4.4,0-8-1.2-8-2.7s3.6-2.7,8-2.7C615,89.4,617.8,90.3,620.1,91.9z"/>
<path class="st8" d="M598,126.4c-2.3,1.6-5.1,2.5-8,2.7c-4.4,0-8-1.2-8-2.7s3.6-2.7,8-2.7C592.9,123.9,595.7,124.8,598,126.4z"/>
<path class="st8" d="M533.7,120.2c0.7-2.8,2.1-5.3,4.2-7.3c3.3-2.9,6.7-4.4,7.7-3.3s-0.9,4.4-4.2,7.3
	C539.3,118.7,536.6,119.9,533.7,120.2z"/>
<path class="st8" d="M494,110.5c0.7-2.8,2.1-5.3,4.2-7.3c3.3-2.9,6.7-4.4,7.7-3.3s-0.9,4.4-4.2,7.3C499.5,109,496.8,110.2,494,110.5
	z"/>
<path class="st8" d="M425,158.2c0.7-2.8,2.1-5.3,4.2-7.3c3.3-2.9,6.7-4.4,7.7-3.3s-0.9,4.4-4.2,7.3
	C430.5,156.7,427.9,157.9,425,158.2z"/>
<path class="st8" d="M577.9,105.2c0.7-2.8,2.1-5.3,4.2-7.3c3.3-2.9,6.7-4.4,7.7-3.3s-0.9,4.4-4.2,7.3
	C583.5,103.7,580.8,104.9,577.9,105.2z"/>
<path class="st8" d="M562,137c0.7-2.8,2.1-5.3,4.2-7.3c3.3-2.9,6.7-4.4,7.7-3.3s-0.9,4.4-4.2,7.3C567.5,135.5,564.9,136.7,562,137z"
	/>
</svg>
