<?xml version="1.0" encoding="utf-8"?>
<!-- Generator: Adobe Illustrator 26.0.3, SVG Export Plug-In . SVG Version: 6.00 Build 0)  -->
<svg version="1.1" id="Layer_1" xmlns="http://www.w3.org/2000/svg" xmlns:xlink="http://www.w3.org/1999/xlink" x="0px" y="0px"
	 viewBox="0 0 890.1 692.7" style="enable-background:new 0 0 890.1 692.7;" xml:space="preserve">
<style type="text/css">
	.st0{fill:url(#SVGID_1_);}
	.st1{fill:#4C495A;}
	.st2{opacity:0.1;enable-background:new    ;}
	.st3{fill:#5F5D7E;}
	.st4{fill:#FDC2CC;}
	.st5{fill:#6C63FF;}
	.st6{fill:#DFE6F5;}
	.st7{fill:#53526B;}
	.st8{fill:#FFFFFF;}
	.st9{fill:#865A61;}
	.st10{opacity:0.1;}
</style>
<linearGradient id="SVGID_1_" gradientUnits="userSpaceOnUse" x1="583.868" y1="-75.5039" x2="583.868" y2="560.0565" gradientTransform="matrix(1 0 0 -1 -154.9654 590.3641)">
	<stop  offset="0" style="stop-color:#808080;stop-opacity:0.25"/>
	<stop  offset="0.5351" style="stop-color:#808080;stop-opacity:0.12"/>
	<stop  offset="1" style="stop-color:#808080;stop-opacity:0.1"/>
</linearGradient>
<path class="st0" d="M527.9,239.9c-1.4-2.7-8.9-19.7-8.9-19.7l-12.5-32.4c0,0-8.9-13.7-8.9-16.2S481.5,159,481.5,159
	s-13.1-3.9-14.1-4.3s-16.5-5.5-16.5-5.5s-6.1-8-7-5.9l0,0c0-0.1-0.1-0.1-0.1-0.2c-1.2-2.3-2-4.9-2.3-7.5c0-0.2-0.1-0.5-0.1-0.7
	c8.2-5.5,13.1-14.8,13.1-24.6c0-1.3-0.1-2.6-0.3-3.8c0.1-0.1,0.2-0.1,0.3-0.2c0.3-0.1,0.2-0.2,0-0.3c0.1,0,0.1-0.1,0.2-0.1
	c0.3-0.1,0.1-0.3-0.2-0.4l0,0c0.5-0.2-0.1-0.3-0.6-0.5c0-0.1,0-0.3-0.1-0.4c0.1-0.3,0.2-0.5,0.2-0.8c0,0,0.1,0,0.1,0.1
	c0.1-0.5,0.1-1,0-1.5c0,0.1-0.1,0.2-0.1,0.3c0.1-0.9-0.4-1.8-1.2-2.3c0,0,0,0-0.1-0.1l0.9-8.8c12.6-0.6,14.8-22,11.9-23.2
	s0-3.8,0-8.9s-9.5-10.9-9.5-10.9s-4,2-10.2-7.9s-29-11.5-30.5-8.9s-11.7,6-25,9.7c-13.3,3.8-10.8,19.5-8.6,22.8
	c1.8,2.8,2.9,6,3.1,9.3c0,2,4.2,10.3,4.2,10.3c-1.3,2.9,2,18.7,3,23.2c0,0.1,0,0.3,0,0.4c0,0,0,0,0,0c0,0.1-0.1,0.1-0.1,0.2
	c-0.2,0.5-0.3,1-0.2,1.5c-0.1,0.6,0,1.1,0.2,1.6c0.2,8.6,4,16.7,10.6,22.2c0,0.3,0,0.5,0,0.8c0.2,3.7,0.3,8,0.1,12.2
	c0,0.2,0,0.4,0,0.6c-1.5,0.3-2.7,1.3-3.4,2.7c-1.2,2.4-8.5,6.1-8.5,6.1s-12.7,0.6-13.9,2.9s-19.6,10.1-19.6,10.1s-9.7,5.7-8.3,12.1
	c0.7,3.4-1.3,8.6-3.5,12.8c-4.5-1.7-9.2-2.9-13.9-3.5l10.3,9.8c-0.2,0.3-0.3,0.5-0.3,0.5l-5.8,20.7c0,0-2,7.2-4,9
	c-2,1.8,1.8,17.8,1.8,17.8s-2.2,11.3-4,14.2s2.8,10.1,2.8,10.1l9.3,21.1l24.6,6.2c0,0,1.6,0.3,4.3,0.9c-0.1,0.5-0.2,1-0.3,1.5
	c-1.2,6.7-2.7,12.9-4.6,14.6c-4.6,4.1-4.4,22.4-4.4,22.4l0.2,25.9c0,0,1.6,32,0.8,33.2c-0.5,0.7,0.5,1.9,3.2,3
	c-0.1,0.5-0.2,1-0.2,1.5c-0.8,5.3-1.1,11.4,0.6,14c0.8,1.4,1.2,3,1.2,4.7c0,2.5,3.8,7.8,3.8,7.8s-3,21.7,2,29.1s9.3,20.9,6.9,24
	c0,0-4.2,9.2-2.2,13.3s0,6.4-2.6,7.4s-2.4,9-2.4,9l4.8,38c0,0,2.6,7.8,0.4,10.5c-2.2,2.7-2.2,16.4,1.2,21.1
	c3.4,4.7-4.8,13.3-4.8,13.3s-5,7.2,3,9.6c0,0,1.6,0.4-1.4,3.5c-3,3.1-3.6,7-1.6,8.4c0.4,0.3,0.9,0.5,1.3,0.6
	c-0.1,0.5-0.2,0.9-0.3,1.4c-0.8,4.1-2.2,9.4-4.9,11.9c-5.1,5.3-9.6,11.2-13.2,17.6c-2.8,5.2-4,10.2-0.9,12.5
	c7.3,5.5,16.5,7.2,22,5.1c5.4-2.1,13.1-8.8,13.1-8.8l1.8-7.6c0,0-1.2-4.7,4.8-6.4c6-1.8,11.7-8,11.7-8V624c1.5-0.8,2.9-1.8,4.2-2.8
	c0,0,2.8-9.9,0-13.3c-2.8-3.3-3.8-4.5-0.2-6.6c3.6-2.1,4.1-6.8,1.5-10.9c-2.7-4.1-6.9-10.1-3.3-18.7c3.6-8.6,5-34.9,5-34.9
	s-1.7-17.9,0-22c1.7-4.1-1.9-12.3-1.9-12.3s1.2-10.1,3.4-14.8c2.2-4.7,4-29.5,4-29.5s4-10.5,4-17.4s-6.2-23.2,3-27.5
	c0,0,4,3.5,2.4,17.6c0,0,4.6,16.4,4.6,21.5s3.4,23.4,3.4,23.4s0.4,5.9,1.8,8s0,8,0,8s5.2,4.9,3.8,8s0.2,10.2,0.2,10.2l-1.2,43.7
	c0,0-3.6,18.7,4.8,30c0,0-3,16.6-4.8,17.8s6.7,11.3,6.7,11.3s-2.3,6.6,2.4,6.9v10.9c1.7,2.9,3.9,5.5,6.7,7.4
	c4.4,3.1,2.6,13.9,2.6,13.9s5.6,13.7,20.6,10.7s16.9-4.3,16.1-9.2c-0.3-1.8-0.9-5-1.9-8.6c-1.6-6.3-4.1-13.8-7-17.6
	c-4.6-5.9-8.5-18.2-8.5-18.2s-1.8-4.1,0-5.5s1-3.9,1-3.9s1.8-5.1,0.2-8.2s3-9.6,3-9.6l-1.4-30l1.4-43.7c0,0-6.2-7.2-3.6-11.5
	s-3-10.3-3-10.3s-0.6-0.2,1-5.1c1-2.9,0.8-6-0.4-8.8c0,0-3.4-12.1,2.6-21.3c0,0,2.6-12.1,3.4-18.3c0.6-4.3,4-20.5,6.1-30
	c0.1-0.5,0.2-1,0.3-1.5c3,0.2,5.2,0.4,5.2,0.4s-4.6-32.2,0-38.8s-3.6-57.4-3.6-57.4s-2-8.9-3.2-17.9c-0.1-0.5-0.1-1-0.2-1.5
	c3.7-0.3,7.5-0.4,11.3-0.2c9.7,0.6,19.1-3.1,19.4-6.8c0.2-3.7,5.4-18.3,6.2-21.7C528.7,254,529.3,242.6,527.9,239.9z"/>
<path class="st1" d="M410.2,616.2v18.1c0,0-5.4,6.2-11.3,8s-4.7,6.4-4.7,6.4l-1.7,7.6c0,0-7.4,6.6-12.6,8.7
	c-5.2,2.1-14.2,0.4-21.2-5c-3-2.3-1.8-7.2,0.9-12.4c3.5-6.4,7.7-12.2,12.7-17.5c2.6-2.6,4-7.8,4.7-11.9c0.6-3,0.7-5.4,0.7-5.4
	L410.2,616.2z"/>
<path class="st2" d="M410.2,629.7v4.6c0,0-5.4,6.2-11.3,8s-4.7,6.4-4.7,6.4l-1.7,7.6c0,0-7.4,6.6-12.6,8.7c-5.2,2.1-14.2,0.4-21.2-5
	c-3-2.3-1.8-7.2,0.9-12.4c-0.1,5.5,1.5,11.6,9.4,11.4c8.5-0.3,16.8-3.3,23.5-8.5c0,0-0.2-12.8,8.7-15.7
	C404.6,633.6,407.6,631.9,410.2,629.7z"/>
<path class="st1" d="M481.3,662.5c-14.4,2.9-19.8-10.7-19.8-10.7s1.7-10.7-2.5-13.8c-2.6-2-4.8-4.5-6.4-7.4v-17.9l17.5-12.4l9.5,8.4
	l0.6,0.6c0,0,3.7,12.2,8.2,18.1c2.8,3.7,5.2,11.2,6.8,17.5c0.9,3.6,1.5,6.8,1.8,8.5C497.6,658.2,495.7,659.5,481.3,662.5z"/>
<path class="st2" d="M481.3,662.5c-14.4,2.9-19.8-10.7-19.8-10.7s1.7-10.7-2.5-13.8c-2.6-2-4.8-4.5-6.4-7.4v-6.9
	c2.8,2.9,8,8.6,9.1,11c1.6,3.3,1.7,15.3,8.9,17.5s21.2,4.1,22.3-1.4c0.5-2.1,1.2-4.1,2.1-6c0.9,3.6,1.5,6.8,1.8,8.5
	C497.6,658.2,495.7,659.5,481.3,662.5z"/>
<path class="st2" d="M377.8,612.7l32.4,3.5v9.5c-3.7,2.2-8.9,4.5-11.8,2.1c-4.4-3.5-17.3-7.9-21.3-9.8
	C377.6,615.1,377.8,612.7,377.8,612.7z"/>
<path class="st2" d="M480.2,610.8c-4.5-1.6-12.4,5.2-22.9,9.5c-1.5,0.7-3,1-4.7,1v-8.6l17.5-12.4l9.5,8.4
	C479.7,609.4,479.9,610.1,480.2,610.8z"/>
<path class="st3" d="M491.6,397c0,0-0.6,2.9-1.5,7c-2,9.4-5.4,25.6-5.9,29.9c-0.8,6.2-3.3,18.3-3.3,18.3c-5.8,9.1-2.5,21.2-2.5,21.2
	c1.2,2.8,1.3,5.9,0.4,8.7c-1.6,4.9-1,5-1,5s5.4,6,2.9,10.3s3.5,11.5,3.5,11.5l-1.4,43.5l1.4,29.9c0,0-4.5,6.4-2.9,9.5
	s-0.2,8.2-0.2,8.2s0.8,2.5-1,3.9s0,5.4,0,5.4c-4.5-1.6-12.4,5.2-22.9,9.5s-7-5.8-7-5.8s-8.2-10.1-6.4-11.3s4.7-17.7,4.7-17.7
	c-8.2-11.3-4.7-29.9-4.7-29.9l1.2-43.5c0,0-1.6-7-0.2-10.1s-3.7-8-3.7-8s1.4-5.8,0-8s-1.7-8-1.7-8s-3.3-18.3-3.3-23.3
	s-4.5-21.4-4.5-21.4c1.6-14-2.3-17.5-2.3-17.5c-8.9,4.3-2.9,20.6-2.9,27.4s-3.9,17.3-3.9,17.3s-1.7,24.7-3.9,29.3
	c-2.1,4.7-3.3,14.8-3.3,14.8s3.5,8.2,1.9,12.2c-1.6,4.1,0,21.9,0,21.9s-1.3,26.2-4.8,34.8s0.6,14.6,3.2,18.6
	c2.6,4.1,2.1,8.7-1.4,10.9s-2.5,3.3,0.2,6.6c2.7,3.3,0,13.2,0,13.2s-11.1,8.7-15.9,4.9s-20.4-8.9-22.3-10.3
	c-1.9-1.4-1.4-5.2,1.6-8.4s1.4-3.5,1.4-3.5c-7.8-2.3-2.9-9.5-2.9-9.5s8-8.5,4.7-13.2s-3.3-18.3-1.2-21s-0.4-10.5-0.4-10.5l-4.6-37.9
	c0,0-0.2-8,2.3-8.9s4.5-3.3,2.5-7.4c-1.9-4.1,2.1-13.2,2.1-13.2c2.3-3.1-1.7-16.5-6.6-23.9s-1.9-28.9-1.9-28.9s-3.7-5.2-3.7-7.8
	c0-1.6-0.4-3.2-1.2-4.7c-1.7-2.7-1.4-8.7-0.6-14c0.7-5.1,1.8-9.5,1.8-9.5L491.6,397z"/>
<path class="st4" d="M453.6,176.9l-38.3,8.9c0,0-18.8-15.9-14.2-24.5c1.6-2.9,2.3-7.9,2.5-13.2c0.2-4.1,0.1-8.5-0.1-12.1
	c-0.3-5.3-0.7-9.2-0.7-9.2s39.2-22.1,37.9,0c-0.3,3.7-0.2,7.4,0.3,11.1c0.3,2.6,1,5.1,2.2,7.5c2.1,3.7,4.7,3.8,4.7,3.8L453.6,176.9z
	"/>
<path class="st2" d="M441,137.9c-11.4,8.2-26.9,7.4-37.4-1.9c-0.3-5.3-0.7-9.2-0.7-9.2s39.2-22.1,37.9,0
	C440.5,130.5,440.5,134.2,441,137.9z"/>
<circle class="st4" cx="423.5" cy="112.6" r="30.1"/>
<path class="st2" d="M453.6,176.9l-38.3,8.9c0,0-18.8-15.9-14.2-24.5c1.6-2.9,2.3-7.9,2.5-13.2c0.8,4.6,3.3,8.8,7,11.7
	c8.7,5.8,7.4,13,7.4,13l15.7-0.6c-1-6.4,4.9-9.9,6.8-10.7s1-4.3,1-4.3l1.7-11.9c2.1,3.7,4.7,3.8,4.7,3.8L453.6,176.9z"/>
<path class="st2" d="M491.6,397c0,0-0.6,2.9-1.5,7c-4.2-0.2-9.8-0.4-12.3,0.2c-4.3,1-21.4,1.4-21.4,1.4l-42.3,1.5v-1.3
	c-4.9,0-9.7,0.4-14.6,1c-7.2,1-18.5-0.4-25.6-1.6c-2.2-0.3-4.4-0.9-6.4-1.7c0.7-5.1,1.8-9.5,1.8-9.5L491.6,397z"/>
<path class="st5" d="M488.3,273.6c-0.6,3.6-0.2,9.6,0.6,15.6c1.2,9,3.1,17.8,3.1,17.8s8,50.5,3.5,57.1s0,38.7,0,38.7
	s-13.4-1.2-17.7-0.2s-21.4,1.4-21.4,1.4l-42.3,1.5v-1.3c-4.9,0-9.7,0.4-14.6,1c-7.2,1-18.5-0.4-25.6-1.6c-7.2-1.2-10.1-3.5-9.3-4.7
	c0.8-1.2-0.8-33-0.8-33l-0.2-25.8c0,0-0.2-18.3,4.3-22.3c1.8-1.7,3.3-7.8,4.5-14.5c1.6-9.7,2.5-20.5,2.5-20.5l-29.5-79l-0.6-1.6
	c0,0,8.5-13.2,7.2-19.6s8-12,8-12s17.7-7.8,18.8-10.1c1.2-2.3,13.4-2.9,13.4-2.9s7-3.7,8.2-6.1c0.6-1.4,1.8-2.3,3.3-2.6
	c0.8,4.7,3.3,8.9,7,11.8c8.7,5.8,7.4,13,7.4,13l15.7-0.6c-1-6.4,4.9-9.9,6.8-10.7s1-4.3,1-4.3l1.8-12.6c0.8-2.1,6.7,5.9,6.7,5.9
	s15,5.1,15.9,5.5s13.6,4.3,13.6,4.3s15.5,10.1,15.5,12.6s8.5,16.1,8.5,16.1s-0.1,0.5-0.3,1.5C501.4,202.2,489.7,265.3,488.3,273.6z"
	/>
<path class="st4" d="M426.2,242.2c0,0-33.6-8.9-36.9-11.1s-22.7,10.3,1,27.2c0,0,29,6,36.7,0C434.7,252.3,426.2,242.2,426.2,242.2z"
	/>
<path class="st2" d="M498.8,188.9l4.1,0.2l12,32.2c0,0,7.2,16.9,8.5,19.6s0.8,14,0,17.3c-0.8,3.3-5.8,17.9-6,21.6
	c-0.2,3.7-9.3,7.4-18.6,6.8s-31.1,2.3-31.1,2.3s-23.2-2.4-37.5,4.9c0,0-9.1-18.8-8.2-54c0,0,16.1-1,20.2,0.6s23.9,6,26.4,3.7
	s14,4.3,14,4.3c1.2-2.6,1.2-5.6,0-8.2c-1.9-4.7-5.2-19.2-1-23.9S498.8,188.9,498.8,188.9z"/>
<path class="st2" d="M488.9,289.2c-9.6,0.7-20.4,2.1-20.4,2.1s-23.2-2.4-37.5,4.9c0,0-9.1-18.8-8.2-54c0,0,16.1-1,20.2,0.6
	s23.9,6,26.4,3.7s14,4.3,14,4.3c1.2-2.6,1.2-5.6,0-8.2c-1.9-4.7-5.2-19.2-1-23.9s17.1-27.4,17.1-27.4l3.8,0.2
	c-2,10.7-13.6,73.8-15.1,82.2C487.7,277.3,488.2,283.3,488.9,289.2z"/>
<path class="st5" d="M499.6,189.7l4.1,0.2l12,32.2c0,0,7.2,16.9,8.5,19.6s0.8,14,0,17.3c-0.8,3.3-5.8,17.9-6,21.6
	c-0.2,3.7-9.3,7.4-18.6,6.8c-9.3-0.6-31.1,2.3-31.1,2.3s-23.2-2.4-37.5,4.9c0,0-9.1-18.8-8.2-54c0,0,16.1-1,20.2,0.6
	s23.9,6,26.4,3.7s14,4.3,14,4.3c1.2-2.6,1.2-5.6,0-8.2c-1.9-4.7-5.2-19.2-1-23.9S499.6,189.7,499.6,189.7z"/>
<rect x="448.8" y="237.9" transform="matrix(0.5264 -0.8502 0.8502 0.5264 20.0026 517.4225)" class="st6" width="51.3" height="5.7"/>
<ellipse transform="matrix(0.5264 -0.8502 0.8502 0.5264 56.9081 519.1292)" class="st6" cx="494.5" cy="208.5" rx="16.4" ry="11.5"/>
<ellipse transform="matrix(0.5264 -0.8502 0.8502 0.5264 56.9081 519.1292)" class="st2" cx="494.5" cy="208.5" rx="11.8" ry="8.3"/>
<rect x="439.6" y="268.4" transform="matrix(0.5264 -0.8502 0.8502 0.5264 -14.9079 515.808)" class="st7" width="31.9" height="5.7"/>
<path class="st4" d="M416.3,285.3l11.8-3.3c0,0,58.5,1.6,38.8-22.5c0,0-10.3-9.9-31.9-1.9c-21.6,8-27.6,8.9-27.6,8.9L416.3,285.3z"
	/>
<circle class="st2" cx="407.5" cy="181.4" r="2.3"/>
<circle class="st2" cx="447.5" cy="180" r="2.3"/>
<circle class="st8" cx="407.5" cy="180.6" r="2.3"/>
<circle class="st2" cx="410.8" cy="213.6" r="2.3"/>
<circle class="st2" cx="448.7" cy="211.3" r="2.3"/>
<circle class="st8" cx="410.8" cy="212.8" r="2.3"/>
<circle class="st2" cx="447.7" cy="323.7" r="2.3"/>
<circle class="st2" cx="417.1" cy="323.7" r="2.3"/>
<circle class="st8" cx="447.7" cy="323" r="2.3"/>
<circle class="st2" cx="419.4" cy="362.8" r="2.3"/>
<circle class="st2" cx="448.7" cy="360.4" r="2.3"/>
<circle class="st8" cx="419.4" cy="362" r="2.3"/>
<circle class="st8" cx="417.1" cy="323" r="2.3"/>
<circle class="st8" cx="448.7" cy="359.7" r="2.3"/>
<circle class="st8" cx="447.5" cy="179.2" r="2.3"/>
<circle class="st8" cx="448.7" cy="210.5" r="2.3"/>
<path class="st2" d="M452.2,292.3c0,0,0.4,53.2,1.6,62.7C453.8,355,454.2,294.8,452.2,292.3z"/>
<path class="st2" d="M462.1,316.9c-0.8,0,15.9,62.3,16.7,66.8S466.8,316.9,462.1,316.9z"/>
<path class="st2" d="M475.3,306.8c0,0.6,9.3,33.8,14,35.5C494,344.1,475.3,306.8,475.3,306.8z"/>
<path class="st2" d="M512,242.2c0,0-19.8,0.9-20.4,3.7S512,242.2,512,242.2z"/>
<path class="st2" d="M477.1,495.4c0,0-14.2,6-12,6.4S477.1,495.4,477.1,495.4z"/>
<path class="st2" d="M447.7,486.5c-0.6-1.2,9.5,5,9.5,5.8S448.5,488.2,447.7,486.5z"/>
<path class="st2" d="M460.9,506.9c0,0,11.1-0.6,11.8,3.7S460.9,506.9,460.9,506.9z"/>
<path class="st2" d="M381.3,506.9c0,0,12-2.4,13,0S381.3,506.9,381.3,506.9z"/>
<path class="st2" d="M385.8,580.1c0,0,0.8,9.9-2.1,12.2C380.7,594.7,385.8,580.1,385.8,580.1z"/>
<path class="st2" d="M384.3,601.1c3.8,0.4,23.8-3.1,23.6,0S384.3,601.1,384.3,601.1z"/>
<path class="st2" d="M476.1,589c0,0-6.8-1-5.2,3.6L476.1,589z"/>
<path class="st2" d="M349.3,201.4h-3.7l-5.6,20.6c0,0-1.9,7.2-3.9,8.9c-1.9,1.7,1.7,17.7,1.7,17.7s-2.1,11.3-3.9,14.2
	s2.7,10.1,2.7,10.1l8.9,21l23.7,6.2c0,0,41.8,9.1,43.7,10.5c1.9,1.4,3.7-0.6,5-13.2s5-37.1,8-38.3c0,0-23.3,2.5-25.2,2.1
	s-11.3,0.2-11.3,0.2s-12.2-0.8-14.2,0.4c-1.9,1.2,2.5-5.6,2.5-5.6c0.8-3.1,0.8-6.4,0-9.5C376.5,241.4,375.7,182,349.3,201.4z"/>
<path class="st2" d="M425.2,261.4c-2.9,1.2-6.6,25.6-8,38.3s-3.1,14.6-5,13.2c-1.6-1.1-29.4-7.3-39.8-9.6c1.6-9.7,2.5-20.5,2.5-20.5
	l-29.5-79h3.1c26.4-19.4,27.2,40,28.6,45.3c0.8,3.1,0.8,6.4,0,9.5c0,0-4.5,6.8-2.5,5.6c1.9-1.2,14.2-0.4,14.2-0.4s9.3-0.6,11.3-0.2
	C401.9,263.9,425.2,261.4,425.2,261.4z"/>
<path class="st5" d="M348.5,202.2h-3.7l-5.6,20.6c0,0-1.9,7.2-3.9,8.9c-1.9,1.7,1.7,17.7,1.7,17.7s-2.1,11.3-3.9,14.2
	c-1.7,2.9,2.7,10.1,2.7,10.1l8.9,21l23.7,6.2c0,0,41.8,9.1,43.7,10.5s3.7-0.6,5-13.2s5-37.1,8-38.3c0,0-23.3,2.5-25.2,2.1
	s-11.3,0.2-11.3,0.2s-12.2-0.8-14.2,0.4c-1.9,1.2,2.5-5.6,2.5-5.6c0.8-3.1,0.8-6.4,0-9.5C375.7,242.2,374.9,182.7,348.5,202.2z"/>
<path class="st2" d="M361.1,272.5c0,0-10.7,20.2-12.6,17.9S361.1,272.5,361.1,272.5z"/>
<path class="st2" d="M350,261c0,0-9.9,8.2-5.2,10.3C349.5,273.4,350,261,350,261z"/>
<path class="st2" d="M359.4,250.9c0.8,0.2,14.4,2.9,14.6,4.1C374.1,256.1,359.4,250.9,359.4,250.9z"/>
<path class="st2" d="M453.6,108.6c-0.9,0.3-1.4,1.2-1.3,2.1c-0.8,0.7-1.9-0.1-2.5-1c-0.7-0.9-1.4-2-2.4-1.9
	c-0.5,0.1-0.9,0.3-1.4,0.6c-1.6,0.5-2.9-1.3-3.7-2.9c-1.5-2.8-3-5.6-4.5-8.4c-3,1.8-6.6-0.1-9.6-1.9c-3-1.8-6.6-3.7-9.6-1.9
	c-4.5,2.6-4.6,11.2-9.3,13.3c-1.5,0.7-3.2,0.5-4.6,1.5c-1.4,0.9-2.1,2.7-2.7,4.4c-0.2,1-0.8,1.9-1.5,2.5c-0.5,0.3-1,0.4-1.6,0.4
	c-1.4,0.2-2.8,0-4-0.6c-1.4-0.9-1.9-2.5-1.4-4c0-0.1,0.1-0.2,0.1-0.2c0.5-0.6,0.9-1.2,1.3-1.9c0.5-1.2-0.2-2.7-0.1-4
	c0.2-2.3,2.7-3.5,3.1-5.7c0.2-0.9,0-1.8,0.2-2.7c0-0.1,0.1-0.2,0.1-0.3l-1.4,1c1.6-1.9,2.4-4.4,3.6-6.7c2.6-5,7.2-8.7,12.6-10.2
	c5.1-1.5,10.4-1.1,15.5,0.2c4.9,1.2,9.5,3.1,13.8,5.7c1.5,0.8,2.9,1.9,4,3.3c0.9,1.4,1.7,2.9,2.4,4.4c1.5,3.1,5.6,6,2.3,6.4
	c-2.7,0.4-0.2,2.3,1.2,3.6c0.3,0.3,0.6,0.6,0.8,0.9c0.5,1,0.4,2.2-0.2,3.1C452.2,108.1,454.4,108.3,453.6,108.6z"/>
<path class="st9" d="M453.6,107.8c-0.9,0.3-1.4,1.2-1.3,2.1c-0.8,0.7-1.9-0.1-2.5-1c-0.7-0.9-1.4-2-2.4-1.9
	c-0.5,0.1-0.9,0.3-1.4,0.6c-1.6,0.5-2.9-1.3-3.7-2.9c-1.5-2.8-3-5.6-4.5-8.4c-3,1.8-6.6-0.1-9.6-1.9c-3-1.8-6.6-3.7-9.6-1.9
	c-4.5,2.6-4.6,11.2-9.3,13.3c-1.5,0.7-3.2,0.5-4.6,1.5c-1.4,0.9-2.1,2.7-2.7,4.4c-0.2,1-0.8,1.9-1.5,2.5c-0.5,0.3-1,0.4-1.6,0.4
	c-1.4,0.2-2.8,0-4-0.6c-1.4-0.9-1.9-2.5-1.4-4c0-0.1,0.1-0.2,0.1-0.2c0.5-0.6,0.9-1.2,1.3-1.9c0.5-1.2-0.2-2.7-0.1-4
	c0.2-2.3,2.7-3.5,3.1-5.7c0.2-0.9,0-1.8,0.2-2.7c0-0.1,0.1-0.2,0.1-0.3l-1.4,1c1.6-1.9,2.4-4.4,3.6-6.7c2.6-5,7.2-8.7,12.6-10.2
	c5.1-1.5,10.4-1.1,15.5,0.2c4.9,1.2,9.5,3.1,13.8,5.7c1.5,0.8,2.9,1.9,4,3.3c0.9,1.4,1.7,2.9,2.4,4.4c1.5,3.1,5.6,6,2.3,6.4
	c-2.7,0.4-0.2,2.3,1.2,3.6c0.3,0.3,0.6,0.6,0.8,0.9c0.5,1,0.4,2.2-0.2,3.1C452.2,107.4,454.4,107.5,453.6,107.8z"/>
<path class="st2" d="M452.1,102.6l-0.3,3.3c0,0-32.6-41.3-58,5.3c0,0-0.1-0.6-0.3-1.5c0.5-0.6,0.9-1.2,1.3-1.9
	c0.5-1.2-0.2-2.7-0.1-4c0.2-2.3,2.7-3.5,3.1-5.7c0.2-0.9,0-1.8,0.2-2.7c0-0.1,0.1-0.2,0.1-0.3l-1.4,1c1.6-1.9,2.4-4.4,3.6-6.7
	c2.6-5,7.2-8.7,12.6-10.2c5.1-1.5,10.4-1.1,15.5,0.2c4.9,1.2,9.5,3.1,13.8,5.7c1.5,0.8,2.9,1.9,4,3.3c0.9,1.4,1.7,2.9,2.4,4.4
	c1.5,3.1,5.6,6,2.3,6.4C448.2,99.4,450.6,101.4,452.1,102.6z"/>
<g class="st10">
	<path d="M452.9,107.4c-0.3,0.4-0.5,0.9-0.4,1.3c-0.8,0.7-1.9-0.1-2.5-1c-0.7-0.9-1.4-2-2.4-1.9c-0.5,0.1-0.9,0.3-1.4,0.6
		c-1.6,0.5-2.9-1.3-3.7-2.9c-1.5-2.8-3-5.6-4.5-8.4c-3,1.8-6.6-0.1-9.6-1.9c-3-1.8-6.6-3.7-9.6-1.9c-4.5,2.6-4.6,11.2-9.3,13.3
		c-1.5,0.7-3.2,0.5-4.6,1.5c-1.4,0.9-2.1,2.7-2.7,4.4c-0.2,1-0.8,1.9-1.5,2.5c-0.5,0.3-1,0.4-1.6,0.4c-1.4,0.2-2.8,0-4-0.6
		c-0.8-0.5-1.3-1.3-1.5-2.1c-0.3,1.4,0.3,2.9,1.5,3.7c1.3,0.6,2.7,0.8,4,0.6c0.5,0,1.1-0.1,1.6-0.4c0.8-0.7,1.3-1.5,1.5-2.5
		c0.6-1.7,1.4-3.5,2.7-4.4c1.4-0.9,3.1-0.8,4.6-1.5c4.6-2.1,4.8-10.7,9.3-13.3c3-1.8,6.6,0.1,9.6,1.9c3,1.8,6.6,3.7,9.6,1.9
		c1.5,2.8,3,5.6,4.5,8.4c0.9,1.6,2.2,3.4,3.7,2.9c0.4-0.2,0.9-0.4,1.4-0.6c1-0.1,1.7,1,2.4,1.9c0.6,0.9,1.8,1.7,2.5,1
		c-0.1-0.9,0.5-1.8,1.3-2.1C454.4,108,453.1,107.8,452.9,107.4z"/>
	<path d="M450.3,99.7c0.2-0.1,0.5-0.2,0.7-0.2c1.4-0.2,1.5-0.9,0.9-1.8c-0.3,0.1-0.6,0.2-0.9,0.3C449.5,98.1,449.7,98.8,450.3,99.7z
		"/>
	<path d="M453.3,106.2c0.1-0.5,0.1-1,0-1.5c-0.1,0.3-0.2,0.6-0.4,0.9C452.7,105.8,453,106,453.3,106.2z"/>
	<path d="M395,103.9c0,0.1,0,0.2,0,0.3c0,0.7,0,1.4,0.2,2.1C395.2,105.5,395.1,104.7,395,103.9z"/>
	<path d="M398.1,94.5c-0.4,0.7-0.8,1.3-1.3,1.9l1.3-0.9C398.1,95.2,398.1,94.8,398.1,94.5z"/>
</g>
<path class="st5" d="M393.8,110.5c0,0-4.7-21-3.2-24.3c0,0-4-8.3-4-10.3c-0.2-3.3-1.2-6.5-3-9.3c-2.1-3.4-4.5-19,8.3-22.7
	s22.6-7.1,24.1-9.7c1.5-2.6,23.4-1,29.4,8.9s9.8,7.9,9.8,7.9s9.2,5.7,9.2,10.9s-2.8,7.7,0,8.9s0.6,22.5-11.5,23.1l-1.1,11.3
	C451.8,105.1,419.2,63.8,393.8,110.5z"/>
<path class="st2" d="M395.2,47.9c0,0-2.8,16.5,2.3,22L395.2,47.9z"/>
<path class="st2" d="M408.4,44.2c0,0-7.2,17.7-5.4,21.1L408.4,44.2z"/>
<path class="st2" d="M414.6,38.5c0,0-4.9,23-2.5,24.9L414.6,38.5z"/>
<path class="st2" d="M423,44.7c0,0-6,14.8-3.6,16.8L423,44.7z"/>
<path class="st2" d="M434.3,46.5c0,0-7.1,12-5.6,14.2L434.3,46.5z"/>
<path class="st2" d="M448.9,58.2c0,0-7.6,2-6,4.5L448.9,58.2z"/>
<path class="st2" d="M456.1,70.8c0,0-6.8,3.3-5.5,5L456.1,70.8z"/>
<path class="st2" d="M390.6,86.2c0,0,43.4-17.6,62.2,7.7C452.8,93.9,430,74.5,390.6,86.2z"/>
<polygon class="st7" points="374.9,231.1 381,225 398.1,241.9 392,248 376.3,232.4 "/>
<path class="st6" d="M335.2,191.8c0,0,26.5,2.3,51.1,30l-10.3,10.4L335.2,191.8z"/>
<path class="st4" d="M414.6,241.4c0,0-25.5-9.3-28-11.5s-17.2,10.7,0.7,28.2c0,0,21.9,6.3,27.8,0
	C421.1,251.9,414.6,241.4,414.6,241.4z"/>
</svg>
