<svg xmlns="http://www.w3.org/2000/svg" xmlns:xlink="http://www.w3.org/1999/xlink" version="1.1" id="Layer_1" x="0px" y="0px" style="enable-background:new 0 0 855.4 610.8;" xml:space="preserve" viewBox="198.8 133.8 457.8 378.8">
<style type="text/css">
	.st0{fill:#E6E6E6;}
	.st1{fill:#3F3D56;}
	.st2{fill:#FFFFFF;}
	.st3{fill:#6C63FF;}
</style>
<polygon class="st0" points="484.1,506.7 370.4,506.7 374.2,456.6 480.2,456.6 "/>
<rect x="364.6" y="501" class="st0" width="127.2" height="11.6"/>
<path class="st1" d="M645,133.8H210.4c-6.4,0-11.6,5.2-11.6,11.6l0,0v265h457.8v-265C656.6,139,651.4,133.8,645,133.8L645,133.8z"/>
<path class="st0" d="M198.8,410.4v43.4c0,6.4,5.2,11.6,11.6,11.6l0,0H645c6.4,0,11.6-5.2,11.6-11.6l0,0v-43.4H198.8z"/>
<rect x="222" y="157.9" class="st0" width="412.5" height="231.3"/>
<circle class="st1" cx="428.2" cy="437.3" r="11.6"/>
<circle class="st2" cx="234.8" cy="165.4" r="2.2"/>
<circle class="st2" cx="243.1" cy="165.4" r="2.2"/>
<circle class="st2" cx="251.5" cy="165.4" r="2.2"/>
<rect x="232.6" y="172.9" class="st2" width="389.9" height="194.2"/>
<path class="st0" d="M258.5,202.4c-0.8,0-1.4,0.6-1.4,1.4v69.7c0,0.8,0.6,1.4,1.4,1.4H339c0.8,0,1.4-0.6,1.4-1.4v-69.7  c0-0.8-0.6-1.4-1.4-1.4H258.5z"/>
<path class="st0" d="M387.7,202.7c-0.8,0-1.4,0.6-1.4,1.4v69.5c0,0.8,0.6,1.4,1.4,1.4h80.2c0.8,0,1.4-0.6,1.4-1.4V204  c0-0.8-0.6-1.4-1.4-1.4H387.7z"/>
<path class="st0" d="M515.6,201.9c-0.8,0-1.4,0.6-1.4,1.4v70.2c0,0.8,0.6,1.4,1.4,1.4h81c0.8,0,1.4-0.6,1.4-1.4v-70.2  c0-0.8-0.6-1.4-1.4-1.4H515.6z"/>
<path class="st0" d="M260,309.4c-1.6,0-2.8,1.3-2.8,2.9c0,1.6,1.3,2.8,2.8,2.8h75.7c1.6,0,2.8-1.3,2.8-2.9c0-1.6-1.3-2.8-2.8-2.8  H260z"/>
<path class="st3" d="M260,322.9c-1.6,0-2.8,1.3-2.8,2.9c0,1.6,1.3,2.8,2.8,2.8h34.1c1.6,0,2.8-1.3,2.8-2.9c0-1.6-1.3-2.8-2.8-2.8  H260z"/>
<path class="st0" d="M390.6,309.4c-1.6,0-2.8,1.3-2.8,2.9c0,1.6,1.3,2.8,2.8,2.8h75.7c1.6,0,2.8-1.3,2.8-2.9c0-1.6-1.3-2.8-2.8-2.8  H390.6z"/>
<path class="st3" d="M390.6,322.9c-1.6,0-2.8,1.3-2.8,2.9c0,1.6,1.3,2.8,2.8,2.8h34.1c1.6,0,2.8-1.3,2.8-2.9c0-1.6-1.3-2.8-2.8-2.8  H390.6z"/>
<path class="st0" d="M517.9,309.4c-1.6,0-2.8,1.3-2.8,2.9c0,1.6,1.3,2.8,2.8,2.8h75.7c1.6,0,2.8-1.3,2.8-2.9c0-1.6-1.3-2.8-2.8-2.8  H517.9z"/>
<path class="st0" d="M260,295.4c-1.6,0-2.8,1.3-2.8,2.9c0,1.6,1.3,2.8,2.8,2.8h75.7c1.6,0,2.8-1.3,2.8-2.9c0-1.6-1.3-2.8-2.8-2.8  H260z"/>
<path class="st0" d="M390.6,295.4c-1.6,0-2.8,1.3-2.8,2.9c0,1.6,1.3,2.8,2.8,2.8h75.7c1.6,0,2.8-1.3,2.8-2.9c0-1.6-1.3-2.8-2.8-2.8  H390.6z"/>
<path class="st0" d="M517.9,295.4c-1.6,0-2.8,1.3-2.8,2.9c0,1.6,1.3,2.8,2.8,2.8h75.7c1.6,0,2.8-1.3,2.8-2.9c0-1.6-1.3-2.8-2.8-2.8  H517.9z"/>
<path class="st3" d="M517.9,322.9c-1.6,0-2.8,1.3-2.8,2.9c0,1.6,1.3,2.8,2.8,2.8H552c1.6,0,2.8-1.3,2.8-2.9c0-1.6-1.3-2.8-2.8-2.8  H517.9z"/>
</svg>