<?xml version="1.0" encoding="utf-8"?>
<!-- Generator: Adobe Illustrator 26.0.3, SVG Export Plug-In . SVG Version: 6.00 Build 0)  -->
<svg version="1.1" id="Layer_1" xmlns="http://www.w3.org/2000/svg" xmlns:xlink="http://www.w3.org/1999/xlink" x="0px" y="0px"
	 viewBox="0 0 674.8 590.6" style="enable-background:new 0 0 674.8 590.6;" xml:space="preserve">
<style type="text/css">
	.st0{fill:#FFB6B6;}
	.st1{fill:#2F2E41;}
	.st2{fill:#E6E6E6;}
	.st3{fill:#3F3D56;}
	.st4{opacity:0.1;enable-background:new    ;}
	.st5{fill:#61AB43;}
	.st6{fill:#EA565C;}
	.st7{opacity:0.2;fill:#FFFFFF;enable-background:new    ;}
	.st8{fill:#714B4F;}
	.st9{opacity:0.1;fill:none;stroke:#000000;stroke-width:2;stroke-miterlimit:10;enable-background:new    ;}
	.st10{fill:#F6C964;}
	.st11{fill:#F2F2F2;}
</style>
<polygon class="st0" points="147.2,513.2 165.4,513.2 159.5,560.7 147.2,560.7 "/>
<path class="st1" d="M144.2,556.7h3.5l13.5-5.5l7.2,5.5l0,0c8.5,0,15.4,6.9,15.4,15.4v0.5h-39.7L144.2,556.7z"/>
<polygon class="st0" points="204.3,513.2 222.5,513.2 216.7,560.7 204.4,560.7 "/>
<path class="st1" d="M201.3,556.7h3.5l13.5-5.5l7.2,5.5l0,0c8.5,0,15.4,6.9,15.4,15.4v0.5h-39.7L201.3,556.7z"/>
<path class="st1" d="M221.3,330.5l3.2,12.1v3.4c-0.5,1.2-0.8,2.5-0.7,3.8c0,2.5,0.8,87.4,0.8,87.4l4.2,80.4c0,0,0,4.5,0.8,5.3
	s0,1.7-2.1,5.8c-2.1,4.2-2.2,3.5-0.5,6s-1.7,9.6-1.7,9.6l-25.2-0.4l0.8-4.2c0.9-4.2,0,0-2.5-2.5s0.8-1.6,1.7-5s0.9-2.5-0.8-4.2
	c-1.7-1.6-1.7-73.9-1.7-73.9l-24.4-82.3l-10.1,84c0,0,5,64.7,5,66.4c0.1,1.7,0.5,3.5,1,5.2c0,0,1.5,1.5,1.5,2.3s-1.7,5.9-1.7,6.7
	s-1.5,9.2-1.5,9.2h-20.3c-1.3-1.7-2.7-3.4-4.2-5c-1.7-1.7,0,0,1.7-4.2c1.7-4.2,0-2.5-1.7-4.2s-7.6-84.9-7.6-84.9l-8.4-47.9
	c0,0,2.5-5.9,3.6-7s-7.7-10.8-6.1-16.6s0-5.8-3.4-9.2s-1.7-16-1.7-16c-5-21.2-4.8-39,10.4-47.3l80-2L221.3,330.5z"/>
<circle class="st0" cx="161.6" cy="110.1" r="24.9"/>
<path class="st2" d="M169.7,141.3l-25-2l-5,9c0,0-19.4,7.1-29,19.1l8,85l6.4,42.2c0,0-7,7.2-6.2,8s1.6-0.8,0.8,1.6s-2.5-0.3-0.1,2.1
	s0.1,0.3-2.3,2.7s0,3.2,0,3.2s78.4,13.6,99.2-4l-24.1-73.4l-1.9-34.5c-0.6-11.5-2.7-22.9-6.1-33.9c-1.8-6-5-11.8-10.4-15
	L169.7,141.3z"/>
<path class="st1" d="M182.1,97c1.9,1.4,3.4,3.4,4.1,5.7c0.3-3.8,0.3-7.5,0.1-11.3c-0.3-2.6-2.1-3.2-4.3-3.9c-2-0.7-3.9-6.1-4.5-8.7
	c-7.8-7.6-21.7-2.5-31,0.2c-5.1,1.4-8,3.3-8.3,4.4l-0.1,0.2l-0.2,0.1c-4,2-4.8,8.2-4.7,13.1c0.1,9.2,3.3,19.7,5.1,20.5
	c0.1,0.1,0.2,0,0.2,0l0,0c2.7-2.2,6,0.1,7.4,1.4c1.7-11.7,11.3-20.8,23.1-21.9c1.9-0.1,3.8-0.5,5.6-0.9c1-0.3,1.9-0.4,2.9-0.4
	C179.1,95.5,180.7,96,182.1,97z"/>
<path class="st0" d="M287.4,226.1c4.8,4,11.8,3.8,16.2-0.6c4.7-4.7,4.8-12.3,0.1-17c-4.7-4.7-12.3-4.8-17-0.1l-62.9-3.9l-20.2-24.8
	l-20.5,27.2l40.6,26L287.4,226.1z"/>
<path class="st2" d="M158,152.7c10.3-2.3,21,0.9,28.4,8.3c13.1,12.7,23.1,22.8,23.1,22.8s19.1,16.1,16.4,17.8
	c-4.8,3-7.2,21.7-10.6,29.6c-1.2,2.8-27.8-22.4-27.8-19.1c0,0-44.5-27.2-42.1-41.5S158,152.8,158,152.7z"/>
<path class="st0" d="M67,303.5c-4.1,4.7-4,11.7,0.3,16.2c4.6,4.9,12.2,5.1,17,0.5c4.9-4.6,5.1-12.2,0.5-17l5.2-62.8l25.3-19.7
	l-26.7-21l-26.9,40L67,303.5z"/>
<path class="st2" d="M143.2,175.6c2.1,10.3-1.3,20.9-8.9,28.2c-13,12.9-23.3,22.7-23.3,22.7s-16.4,18.8-18.1,16
	c-2.8-4.8-21.5-7.6-29.3-11.2c-2.8-1.2,23-27.2,19.7-27.3c0,0,28.2-44,42.4-41.3S143.2,175.7,143.2,175.6z"/>
<path class="st3" d="M308,267.6c0,0-21.9,41.8-3.3,41.8c18.6,0,253.9,0.9,260.5-10.8c4.6-8.2,2.1-37.4,0.1-54.1
	c-0.8-6.8-6.9-11.7-13.9-11.3c-50.9,2.7-241,12.8-240.1,11.5c1.6-2.5,0.5-1.8,0.5-1.8S304.2,265.7,308,267.6z"/>
<path class="st4" d="M565.8,244.5c-0.8-6.8-6.9-11.7-13.9-11.3c-50.9,2.7-241,12.8-240.1,11.5c1.6-2.5,0.5-1.8,0.5-1.8
	s-1.6,5.1-3,10.7c0.2,0,0.4,0.2-0.3,1.2c-0.1,0.2-0.1,0.5-0.2,0.7c7.6,0.7,190.2-8.9,239.9-11.6c7-0.4,13.2,4.6,13.9,11.3
	c1.4,12.4,3.2,31.7,2.1,44.2c0.4-0.2,0.8-0.5,1-0.9C570.2,290.4,567.7,261.2,565.8,244.5z"/>
<path class="st5" d="M334.1,204.8c-2.5-0.7-5.5-1.6-5.2-3.2c0.2-0.8,1.3-1.4,2.1-2.1c1.6-1.3,2-3.1,0.3-4.4
	c-1.7-1.3-5.7-1.4-7.2-0.1c-0.8,0.7-0.7,1.5-1.1,2.3c-1.2,2.4-6.2,3.4-10.4,4.4c-4.2,1-8.9,2.7-8.5,5.1c0.4,2.7,6.9,5.1,4.3,7.5
	c-0.9,0.8-2.9,1.3-3.3,2.3c-0.3,0.7,0.3,1.4,0.9,2l4.2,4.4c1.6,1.8,3.3,3.7,2.8,5.6c-1.1,3.8-10,5.3-17,4.9
	c-2.6-0.2-5.6-0.4-7.4,0.7c-1.3,0.8-1.3,2-0.9,3.1c1.2,2.8,4.9,5.1,9.7,6.2c-5.3,1-7.4,5.3-3.7,7.7c-2.1,0.7-4.4,0.8-6.6,0.2
	c-1.8,1.6-0.8,3.8,1.6,5.3c2.3,1.4,5.6,2.2,8.8,3l-3,2.7c2.2,1.6,6.8,1.1,10,0c3.2-1.1,6.6-2.4,10.1-1.9c3.3,0.5,5.8,2.6,9.1,2.3
	c2.6-0.3,3.9-1.9,4.6-3.3l3.5-5.9c4.9,0.7,10.1-2.5,8.1-5.1c5.5,0.6,10.9-2.9,9.1-5.8c2.9,2.1,5,4.7,6,7.3c0.5,1.2,0.7,2.4,1.9,3.4
	c1.6,1.2,3.7,1.5,5.7,1c-1,1.9-1.8,4.1,0.2,5.6c2.1,1.6,8,1.1,7.7-0.8c3.2,1.3,6.6,2.5,10.5,2.6s8.2-1.4,8.6-3.5
	c5.5,1.8,11.3,2.7,17.1,2.7c0.5-1.5,3.9-1.9,6.5-1.6c2.6,0.3,5,1.2,7.6,1.2c2.6,0,5.5-1.5,4.2-2.8c5.6,1.1,11.4,1.4,17,0.8
	c5.4-0.6,10.4-1.9,15.9-2.1c5.5-0.3,11,0.5,16.2,2.5c1.8,0.7,4,1.6,6,1.1c1.1-0.3,1.6-1,2.4-1.6c3.2-2.4,9.9-1.9,15-1
	c5.1,1,11.1,2,15.6,0.4c1.7-0.6,2.9-1.6,4.7-2.1c6.4-1.9,14.2,2.9,21,1.5c2.2-0.5,4-1.5,6.4-1.6c4.2-0.2,7,2.5,11,3.1
	c4.2,0.6,8.8-1.9,7.8-4.2c4,0.1,8.1-0.5,12-1.6l-1.9-3.3c4.8-0.1,8.3-3.4,6.1-5.7c4.8-0.9,8.6-3.3,9.5-6c0.9-2.7-0.9-5.7-4.7-7.6
	c-2.2-1.1-5.2-1.8-6.5-3.3c-0.9-1.1-0.8-2.3-1.2-3.5c-0.8-2.5-4.2-4.8-8.6-5.7c-1.9-0.4-4-0.5-5.7-1.1c-1.7-0.6-3-1.9-2-2.8
	c0.5-0.5,1.6-0.8,2.2-1.3c2.7-1.9-1.9-4.3-5.9-5.4l9.4-0.3l2-8.8c-3.7,2.9-13.4,2.3-15.8-1c3,1,7-0.3,8.6-2c1.5-1.7,1.1-3.7,0.7-5.6
	c-0.1-1-0.6-1.8-1.6-2.3c-0.9-0.4-2.4-0.6-2.7-1.2c-0.3-0.7,0.9-1.2,1.1-1.9c0.4-1.3-2.7-1.9-4.7-2.4c-4.9-1.5-7.2-5.5-12.7-5.4
	c-5.4,0.1-7,4.2-7,7.2s-1.9,7.1-7.3,7c-2.2,0-4.1-0.8-5.9-1.5l-15.6-6.4c-2.1-0.9-4.2-1.7-6.4-2.2c-3.2-0.7-6.7-0.8-10.1-0.8
	l-22-0.5c-1.1-0.1-2.2,0-3.3,0.3c-1.2,0.4-1.7,1.1-2.4,1.8c-3,2.8-10.3,3.8-15.4,2.3c-1.3-0.4-2.6-1-4-1.2c-4.6-1-9.4,0.8-14.2,1.5
	c-7.8,1.1-17.5-0.7-23.1,2.4c-1.9,1.1-2.9,2.5-4.6,3.6c-1.8,1.1-4.9,1.9-7.1,1c0.3,2.1,0.5,4.2-0.9,6.1c-1.5,1.9-5.2,3.4-8.8,3
	c-1.9-0.5-1.8-2.1-0.9-3.1c0.9-1,2.3-2.1,1.9-3.3c-0.5-1.1-2.5-1.8-4.1-2.6c-1.6-0.8-2.6-2.3-0.9-3c-1.1-1.4-5.1-1.2-6.9-0.1
	c-1.8,1.1-1.9,2.8-2.1,4.3c-0.2,1.5-0.6,3.2-2.6,4.2c-3.5,1.7-10.1,0.8-12.4,3c-0.7,0.7-0.8,1.6-1.2,2.4c-1.9,3.5-9.9,4.4-16.5,4.7
	c-0.1,0.7-0.2,1.5-0.1,2.2C339.5,207.2,335.8,205.3,334.1,204.8z"/>
<path class="st4" d="M562.1,200.9c0.4,1.9,0.8,3.9-0.7,5.6c-0.2,0.2-0.5,0.5-0.8,0.7c2-0.1,4-0.1,5.9-0.2c0.6-2.9,1.3-5.9,2-8.8
	c-1.5,1.2-4.1,1.8-6.7,1.9C562,200.3,562.1,200.6,562.1,200.9z"/>
<path class="st4" d="M563.9,211.2c-0.2-1.2-2.3-2.4-4.6-3.3c-2,0.9-4.3,1.1-6.4,0.6C554.6,210.7,559.7,211.8,563.9,211.2z"/>
<path class="st4" d="M566.8,217.6c-0.1,0.2-0.1,0.5-0.2,0.7c-3.1,0.1-6.3,0.2-9.4,0.3c3.9,1.1,8.6,3.5,5.9,5.4
	c-0.6,0.5-1.7,0.8-2.2,1.3c-1,1,0.2,2.3,2,2.8c1.8,0.6,3.9,0.7,5.7,1.1c4.5,0.9,7.9,3.2,8.6,5.7c0.4,1.2,0.2,2.4,1.2,3.5
	c1.3,1.5,4.3,2.3,6.5,3.3c0.2,0.1,0.4,0.2,0.6,0.3c2.1-1.1,3.5-2.5,4-4.1c1-2.7-0.9-5.7-4.7-7.6c-2.2-1.1-5.2-1.8-6.5-3.3
	c-0.9-1.1-0.8-2.3-1.2-3.5c-0.8-2.5-4.2-4.8-8.6-5.7C568.1,217.8,567.4,217.7,566.8,217.6z"/>
<path class="st4" d="M292,258.1c0.7-1.5,2.6-2.8,5.3-3.3c-2.6-0.5-5-1.6-7.1-3c-1.1,0.1-2.2-0.1-3.2-0.4c-1.8,1.6-0.8,3.8,1.6,5.3
	C289.6,257.3,290.8,257.8,292,258.1z"/>
<path class="st4" d="M308.5,214.3c1.3-0.5,2.7-0.8,4.1-1.2c4.2-1,9.1-2,10.4-4.4c0.4-0.8,0.4-1.6,1.1-2.3c1.5-1.4,5.5-1.2,7.2,0.1
	c1.7,1.3,1.2,3.1-0.3,4.4c-0.8,0.7-1.9,1.3-2.1,2.1c-0.3,1.5,2.8,2.4,5.2,3.2c1.2,0.3,2.2,0.9,3.2,1.6c0-0.2,0.1-0.3,0.1-0.5
	c6.6-0.3,14.6-1.2,16.5-4.7c0.4-0.8,0.5-1.6,1.2-2.4c2.3-2.3,9-1.4,12.4-3c2.1-1,2.5-2.7,2.6-4.2s0.4-3.1,2.1-4.3
	c1.8-1.1,5.7-1.3,6.9,0.1c-1.6,0.7-0.6,2.3,0.9,3c1.5,0.8,3.6,1.5,4.1,2.6c0.5,1.1-0.9,2.3-1.9,3.3c-0.9,1.1-1.1,2.7,0.9,3.1
	c3.6,0.5,7.4-1.1,8.8-3c1.5-1.9,1.2-4.1,0.9-6.1c2.2,0.8,5.3,0.1,7.1-1c1.8-1.1,2.8-2.5,4.6-3.6c5.6-3.2,15.3-1.4,23.1-2.4
	c4.7-0.6,9.6-2.4,14.2-1.5c1.5,0.3,2.7,0.8,4,1.2c5.2,1.5,12.4,0.5,15.4-2.3c0.7-0.6,1.2-1.4,2.4-1.8c1.1-0.3,2.2-0.3,3.3-0.3
	c7.3,0.2,14.6,0.3,22,0.5c3.4,0.1,6.9,0.2,10.1,0.8c2.2,0.6,4.4,1.3,6.4,2.2c5.2,2.2,10.5,4.3,15.7,6.5c1.8,0.7,3.6,1.5,5.9,1.5
	c5.5,0.1,7.3-4,7.3-7s1.5-7.1,7-7.2c5.5-0.1,7.9,4,12.7,5.4c2.1,0.6,5.1,1.2,4.7,2.4c-0.2,0.6-1.1,1.1-1.1,1.7c1.3-0.3,2.6-1,3.6-2
	c1.5-1.8,1.1-3.7,0.7-5.6c-0.1-1-0.6-1.8-1.6-2.3c-0.9-0.4-2.4-0.6-2.7-1.2c-0.3-0.7,0.9-1.2,1.1-1.9c0.4-1.3-2.7-1.9-4.7-2.4
	c-4.9-1.5-7.2-5.5-12.7-5.4c-5.4,0.1-7,4.2-7,7.2s-1.9,7.1-7.3,7c-2.2,0-4.1-0.8-5.9-1.5c-5.2-2.2-10.5-4.3-15.7-6.5
	c-2.1-0.9-4.2-1.7-6.4-2.2c-3.2-0.7-6.7-0.8-10.1-0.8c-7.3-0.2-14.6-0.3-22-0.5c-1.1-0.1-2.2,0-3.3,0.3c-1.2,0.4-1.7,1.1-2.4,1.8
	c-3,2.8-10.3,3.8-15.4,2.3c-1.3-0.4-2.6-1-4-1.2c-4.6-1-9.4,0.8-14.2,1.5c-7.8,1.1-17.5-0.7-23.1,2.4c-1.9,1.1-2.9,2.5-4.6,3.6
	c-1.8,1.1-4.9,1.9-7.1,1c0.3,2.1,0.5,4.2-0.9,6.1c-1.5,1.9-5.2,3.4-8.8,3c-1.9-0.5-1.8-2.1-0.9-3.1s2.3-2.1,1.9-3.3
	c-0.5-1.1-2.5-1.8-4.1-2.6c-1.6-0.8-2.6-2.3-0.9-3c-1.1-1.4-5.1-1.2-6.9-0.1c-1.8,1.1-1.9,2.8-2.1,4.3s-0.6,3.2-2.6,4.2
	c-3.5,1.7-10.1,0.8-12.4,3c-0.7,0.7-0.8,1.6-1.2,2.4c-1.9,3.5-9.9,4.4-16.5,4.7c0,0.2-0.1,0.3-0.1,0.5c-0.9-0.7-2.1-1.2-3.2-1.6
	c-2.5-0.7-5.5-1.6-5.2-3.2c0.2-0.8,1.3-1.4,2.1-2.1c1.6-1.3,2-3.1,0.3-4.4c-1.7-1.3-5.7-1.4-7.2-0.1c-0.8,0.7-0.7,1.5-1.1,2.3
	c-1.2,2.4-6.2,3.4-10.4,4.4c-4.2,1-8.9,2.7-8.5,5.1C304.5,209.6,310.8,212,308.5,214.3z"/>
<path class="st4" d="M297.3,243.5c-1.2,0.2-2.3,0.6-3.3,1.2c0.6,0,1.2,0.1,1.9,0.1c7,0.5,15.9-1,17-4.9c0.5-1.9-1.2-3.8-2.8-5.6
	c-0.6-0.7-1.3-1.4-2-2.1c-3.5,1.1-8.1,1.5-12.2,1.2c-2.6-0.2-5.6-0.4-7.4,0.7c-1.3,0.8-1.3,2-0.9,3.1
	C288.8,240.1,292.5,242.4,297.3,243.5z"/>
<ellipse class="st6" cx="440.5" cy="181.3" rx="70" ry="44.6"/>
<path class="st7" d="M416.7,178.2c0,0-31.8,3.2-22.4-9.9s21-17.6,26.6-13.9c5.6,3.6,7.9,13.5,7,13.5c-0.9,0-14.5-7.6-19.2-1.8
	C404.1,171.9,416.7,178.2,416.7,178.2z"/>
<path class="st7" d="M444.1,179.5c0,0,26.2,17.6,10.3,21.6c-15.9,4-27.8,0.1-29.6-6.1c-1.8-6.2,3.1-15.2,3.8-14.6
	c0.7,0.6,5.8,14.9,13.3,13.4S444.1,179.5,444.1,179.5z"/>
<path class="st7" d="M450.2,168.5c0,0,2.1-30.7,13.9-19.6c11.8,11,14.5,22.9,9.8,27.6c-4.6,4.7-15.1,5.3-15,4.4s10.3-12.5,5-17.9
	S450.2,168.5,450.2,168.5z"/>
<ellipse class="st6" cx="356" cy="177.8" rx="70" ry="44.6"/>
<path class="st7" d="M332.2,174.6c0,0-31.8,3.2-22.4-9.9s21-17.6,26.6-13.9s7.9,13.5,7,13.5s-14.5-7.6-19.2-1.8
	C319.6,168.3,332.2,174.6,332.2,174.6z"/>
<path class="st7" d="M359.7,175.9c0,0,26.2,17.6,10.3,21.6c-15.9,4-27.8,0.1-29.6-6.1c-1.8-6.2,3.1-15.2,3.8-14.6
	c0.7,0.6,5.8,14.9,13.3,13.4S359.7,175.9,359.7,175.9z"/>
<path class="st7" d="M365.8,164.9c0,0,2.1-30.7,13.9-19.6c11.8,11.1,14.5,22.9,9.8,27.6s-15.1,5.3-15,4.4c0.1-0.9,10.3-12.5,5-17.9
	C374.3,153.9,365.8,164.9,365.8,164.9z"/>
<path class="st4" d="M392.4,139.8c15.2,8.2,25,20.4,25,34.1c0,24.6-31.3,44.6-70,44.6c-13.2,0-25.7-2.3-36.2-6.4
	c12.2,6.5,27.9,10.4,45.1,10.4c38.7,0,70-19.9,70-44.6C426.2,161.8,412.7,147.7,392.4,139.8z"/>
<path class="st4" d="M476.9,143c15.2,8.2,25,20.4,25,34.1c0,24.6-31.3,44.6-70,44.6c-13.2,0-25.7-2.3-36.2-6.4
	c12.2,6.5,27.9,10.4,45.1,10.4c38.7,0,70-19.9,70-44.6C510.7,165,497.2,150.8,476.9,143z"/>
<path class="st8" d="M313.4,169.2c0,0,60.2-62.1,207.7-36.4c116.6,20.3,20.9,55.2-24.4,68.9c-13.1,4-26.7,6.3-40.5,7
	C405.2,211.2,276.9,213.5,313.4,169.2z"/>
<path class="st4" d="M496.8,187.7c-13.1,4-26.7,6.3-40.5,7c-41.4,2-133.4,4-147.5-19c-17.8,37,99.3,34.8,147.5,32.5
	c13.8-0.7,27.4-3,40.5-7c33.2-10.1,93.4-31.5,77.4-50.2C563.3,165.7,522.1,180,496.8,187.7z"/>
<line class="st9" x1="442" y1="133" x2="458.3" y2="164.1"/>
<line class="st9" x1="391.6" y1="144.2" x2="405.6" y2="170.3"/>
<line class="st9" x1="471.4" y1="133" x2="493.4" y2="164.1"/>
<line class="st9" x1="391.6" y1="173" x2="538.6" y2="155.1"/>
<line class="st9" x1="533" y1="138.9" x2="543.3" y2="152.8"/>
<line class="st9" x1="362.7" y1="155.1" x2="369.2" y2="168.1"/>
<path class="st10" d="M384.6,112.8c0,0,134.3-0.6,135.5-1.8c1.2-1.2,29.6-1.8,35.1,5.8s7.4,11.1,0,12.3
	c-7.4,1.2-250.7,121.2-250.7,121.2s-13.5,1.2-6.8-11.7C304.5,225.8,384.6,112.8,384.6,112.8z"/>
<path class="st5" d="M441,166.3c0,4.9-24.3,16.7-54.1,16.7s-54.1-11.8-54.1-16.7s24.3-6.8,54.1-6.8S441,161.5,441,166.3z"/>
<ellipse class="st5" cx="386.9" cy="166.1" rx="54.1" ry="8.8"/>
<path class="st5" d="M506.3,158.2c0,4.9-24.3,16.7-54.1,16.7c-29.9,0-54.1-11.8-54.1-16.7s24.3-6.8,54.1-6.8
	C482.1,151.5,506.3,153.4,506.3,158.2z"/>
<ellipse class="st5" cx="452.2" cy="158" rx="54.1" ry="8.8"/>
<path class="st5" d="M571.7,150.1c0,4.9-24.3,16.7-54.1,16.7c-29.9,0-54.1-11.8-54.1-16.7s24.3-6.8,54.1-6.8
	C547.4,143.3,571.7,145.2,571.7,150.1z"/>
<ellipse class="st5" cx="517.5" cy="149.9" rx="54.1" ry="8.8"/>
<path class="st3" d="M318.1,152.6c0,0-22.3-3.5-10.9-20.9s15.2-37,20.2-41.4c5.6-4.9,120.3-90.6,209.7,4.2
	c9.5,10.2,17.2,21.7,22.8,34.3c1.1,2.4,2.3,4.5,3.5,5.6c3.6,3.5,6.7,13.5,0,18.5S358.3,177.3,318.1,152.6z"/>
<path class="st11" d="M422.5,80c-1.3,0.9-3,1.4-4.7,1.5c-2.6,0-4.7-0.7-4.7-1.5c0-0.8,2.1-1.5,4.7-1.5
	C419.5,78.6,421.1,79.1,422.5,80z"/>
<path class="st11" d="M385.2,70.5c-1.3,0.9-3,1.4-4.7,1.5c-2.6,0-4.7-0.7-4.7-1.5c0-0.8,2.1-1.5,4.7-1.5
	C382.2,69.1,383.8,69.6,385.2,70.5z"/>
<path class="st11" d="M486.5,84.3c-1.6,0.5-3.3,0.5-4.9,0.1c-2.5-0.7-4.2-2-4-2.8c0.2-0.8,2.5-0.8,4.9-0.1
	C484,82.1,485.5,83,486.5,84.3z"/>
<path class="st11" d="M417.6,58.9c-1.6,0.5-3.3,0.5-4.9,0.1c-2.5-0.7-4.2-2-4-2.8c0.2-0.8,2.5-0.8,4.9-0.1
	C415.2,56.7,416.6,57.6,417.6,58.9z"/>
<path class="st11" d="M492.7,67.8c-1.6,0.5-3.3,0.5-4.9,0.1c-2.5-0.7-4.2-2-4-2.8c0.2-0.8,2.5-0.8,4.9-0.1
	C490.3,65.6,491.7,66.6,492.7,67.8z"/>
<path class="st11" d="M477.4,66.5c-1.3,0.9-3,1.4-4.7,1.5c-2.6,0-4.7-0.7-4.7-1.5s2.1-1.5,4.7-1.5C474.4,65.1,476,65.6,477.4,66.5z"
	/>
<path class="st11" d="M432.8,57.5c-1.3,0.9-3,1.4-4.7,1.5c-2.6,0-4.7-0.7-4.7-1.5c0-0.8,2.1-1.5,4.7-1.5
	C429.9,56.1,431.4,56.6,432.8,57.5z"/>
<path class="st11" d="M467,57.5c-1.3,0.9-3,1.4-4.7,1.5c-2.6,0-4.7-0.7-4.7-1.5c0-0.8,2.1-1.5,4.7-1.5C464,56.1,465.7,56.6,467,57.5
	z"/>
<path class="st11" d="M454.1,77c-1.3,0.9-3,1.4-4.7,1.5c-2.6,0-4.7-0.7-4.7-1.5s2.1-1.5,4.7-1.5C451.1,75.6,452.7,76.1,454.1,77z"/>
<path class="st11" d="M416.4,73.5c0.4-1.6,1.2-3,2.5-4.1c1.9-1.6,3.9-2.5,4.5-1.9c0.6,0.6-0.5,2.5-2.5,4.1
	C419.7,72.6,418.1,73.3,416.4,73.5z"/>
<path class="st11" d="M393.1,68c0.4-1.6,1.2-3,2.5-4.1c1.9-1.6,3.9-2.5,4.5-1.9c0.6,0.6-0.5,2.5-2.5,4.1
	C396.3,67.2,394.8,67.8,393.1,68z"/>
<path class="st11" d="M352.7,94.9c0.4-1.6,1.2-3,2.5-4.1c1.9-1.6,3.9-2.5,4.5-1.9s-0.5,2.5-2.5,4.1
	C355.9,94.1,354.4,94.8,352.7,94.9z"/>
<path class="st11" d="M442.3,65c0.4-1.6,1.2-3,2.5-4.1c1.9-1.6,3.9-2.5,4.5-1.9c0.6,0.6-0.5,2.5-2.5,4.1
	C445.6,64.2,444,64.8,442.3,65z"/>
<path class="st11" d="M433,83c0.4-1.6,1.2-3,2.5-4.1c1.9-1.6,3.9-2.5,4.5-1.9s-0.5,2.5-2.5,4.1C436.2,82.1,434.7,82.8,433,83z"/>
</svg>
