<?xml version="1.0" encoding="utf-8"?>
<!-- Generator: Adobe Illustrator 26.0.3, SVG Export Plug-In . SVG Version: 6.00 Build 0)  -->
<svg version="1.1" id="Layer_1" xmlns="http://www.w3.org/2000/svg" xmlns:xlink="http://www.w3.org/1999/xlink" x="0px" y="0px"
	 viewBox="0 0 674.8 590.6" style="enable-background:new 0 0 674.8 590.6;" xml:space="preserve">
<style type="text/css">
	.st0{fill:#FFB6B6;}
	.st1{fill:#2F2E41;}
	.st2{fill:#E6E6E6;}
</style>
<polygon class="st0" points="363.5,550.3 351.2,550.3 345.3,502.8 363.5,502.8 "/>
<path class="st1" d="M366.6,562.2h-39.7v-0.5c0-8.5,6.9-15.4,15.4-15.4l0,0l7.2-5.5l13.5,5.5h3.5L366.6,562.2z"/>
<polygon class="st0" points="306.3,550.3 294,550.3 288.2,502.8 306.4,502.8 "/>
<path class="st1" d="M309.5,562.2h-39.7v-0.5c0-8.5,6.9-15.4,15.4-15.4l0,0l7.2-5.5l13.5,5.5h3.5L309.5,562.2z"/>
<path class="st1" d="M301,290.9l80,2c15.2,8.3,15.4,26.1,10.4,47.3c0,0,1.7,12.6-1.7,16s-5,3.4-3.4,9.2s-7.2,15.5-6.1,16.6
	s3.6,7,3.6,7l-8.4,47.9c0,0-5.9,83.2-7.6,84.9s-3.4,0-1.7,4.2c1.7,4.2,3.4,2.5,1.7,4.2c-1.5,1.6-2.9,3.3-4.2,5h-20.3
	c0,0-1.5-8.4-1.5-9.2s-1.7-5.9-1.7-6.7s1.5-2.3,1.5-2.3c0.5-1.7,0.9-3.5,1-5.2c0-1.7,5-66.4,5-66.4l-10.1-84l-24.4,82.3
	c0,0,0,72.3-1.7,73.9c-1.7,1.7-1.7,0.8-0.8,4.2s4.2,2.5,1.7,5s-3.4-1.7-2.5,2.5l0.8,4.2l-25.2,0.4c0,0-3.4-7.1-1.7-9.6
	s1.6-1.8-0.5-6c-2.1-4.1-2.9-5-2.1-5.8s0.8-5.3,0.8-5.3l4.2-80.4c0,0,0.8-84.9,0.8-87.4c0.1-1.3-0.2-2.6-0.7-3.8v-3.4l3.2-12.1
	L301,290.9z"/>
<circle class="st0" cx="349.1" cy="99.7" r="24.9"/>
<path class="st2" d="M336.7,141c-5.4,3.2-8.6,9-10.4,15c-3.4,11-5.5,22.4-6.1,33.9l-1.9,34.5l-24.1,73.4c20.8,17.6,99.2,4,99.2,4
	s2.4-0.8,0-3.2s-4.7-0.3-2.3-2.7s0.7,0.3-0.1-2.1s0-0.8,0.8-1.6s-6.2-8-6.2-8L392,242l8-85c-9.6-12-29-19.1-29-19.1l-5-9l-25,2
	L336.7,141z"/>
<path class="st1" d="M333.2,85.1c1,0,1.9,0.1,2.9,0.4c1.8,0.4,3.7,0.8,5.6,0.9c11.8,1.1,21.4,10.2,23.1,21.9
	c1.4-1.3,4.7-3.6,7.4-1.4l0,0c0,0,0.1,0.1,0.2,0c1.8-0.8,5-11.3,5.1-20.5c0.1-4.9-0.7-11.1-4.7-13.1l-0.2-0.1l-0.1-0.2
	c-0.3-1.1-3.2-3-8.3-4.4c-9.3-2.7-23.2-7.8-31-0.2c-0.6,2.6-2.5,8-4.5,8.7c-2.2,0.7-4,1.3-4.3,3.9c-0.2,3.8-0.2,7.5,0.1,11.3
	c0.7-2.3,2.2-4.3,4.1-5.7C330,85.6,331.6,85.1,333.2,85.1z"/>
<path class="st0" d="M287,222.5l40.6-26l-20.5-27.2l-20.2,24.8L224,198c-4.7-4.7-12.3-4.6-17,0.1c-4.7,4.7-4.6,12.3,0.1,17
	c4.4,4.4,11.4,4.6,16.2,0.6L287,222.5z"/>
<path class="st2" d="M365.3,160.2c2.4,14.3-42.1,41.5-42.1,41.5c0-3.3-26.6,21.9-27.8,19.1c-3.4-7.9-5.8-26.6-10.6-29.6
	c-2.7-1.7,16.4-17.8,16.4-17.8s10-10.1,23.1-22.8c7.4-7.4,18.1-10.6,28.4-8.3C352.7,142.4,362.9,145.9,365.3,160.2z"/>
<path class="st0" d="M449,229.3l-26.9-40l-26.7,21l25.3,19.7l5.2,62.8c-4.6,4.8-4.4,12.4,0.5,17c4.8,4.6,12.4,4.4,17-0.5
	c4.3-4.5,4.4-11.5,0.3-16.2L449,229.3z"/>
<path class="st2" d="M385,152.3c14.2-2.7,42.4,41.3,42.4,41.3c-3.3,0.1,22.5,26.1,19.7,27.3c-7.8,3.6-26.5,6.4-29.3,11.2
	c-1.7,2.8-18.1-16-18.1-16s-10.3-9.8-23.3-22.7c-7.6-7.3-11-17.9-8.9-28.2C367.5,165.3,370.8,155,385,152.3z"/>
</svg>
