<?xml version="1.0" encoding="utf-8"?>
<!-- Generator: Adobe Illustrator 26.0.3, SVG Export Plug-In . SVG Version: 6.00 Build 0)  -->
<svg version="1.1" id="Layer_1" xmlns="http://www.w3.org/2000/svg" xmlns:xlink="http://www.w3.org/1999/xlink" x="0px" y="0px"
	 viewBox="0 0 245.5 497.8" style="enable-background:new 0 0 245.5 497.8;" xml:space="preserve">
<style type="text/css">
	.st0{fill:#FFB6B6;}
	.st1{fill:#2F2E41;}
	.st2{fill:#E6E6E6;}
</style>
<polygon class="st0" points="85.5,438.4 103.7,438.4 97.8,485.9 85.5,485.9 "/>
<path class="st1" d="M82.5,481.9H86l13.5-5.5l7.2,5.5l0,0c8.5,0,15.4,6.9,15.4,15.4v0.5H82.4L82.5,481.9z"/>
<polygon class="st0" points="142.6,438.4 160.8,438.4 155,485.9 142.7,485.9 "/>
<path class="st1" d="M139.6,481.9h3.5l13.5-5.5l7.2,5.5l0,0c8.5,0,15.4,6.9,15.4,15.4v0.5h-39.7L139.6,481.9z"/>
<path class="st1" d="M159.6,255.7l3.2,12.1v3.4c-0.5,1.2-0.8,2.5-0.7,3.8c0,2.5,0.8,87.4,0.8,87.4l4.2,80.4c0,0,0,4.5,0.8,5.3
	s0,1.7-2.1,5.8c-2.1,4.2-2.2,3.5-0.5,6s-1.7,9.6-1.7,9.6l-25.2-0.4l0.8-4.2c0.9-4.2,0,0-2.5-2.5s0.8-1.6,1.7-5s0.9-2.5-0.8-4.2
	c-1.7-1.6-1.7-73.9-1.7-73.9L111.5,297l-10.1,84c0,0,5,64.7,5,66.4c0.1,1.7,0.5,3.5,1,5.2c0,0,1.5,1.5,1.5,2.3s-1.7,5.9-1.7,6.7
	s-1.5,9.2-1.5,9.2H85.4c-1.3-1.7-2.7-3.4-4.2-5c-1.7-1.7,0,0,1.7-4.2c1.7-4.2,0-2.5-1.7-4.2s-7.6-84.9-7.6-84.9l-8.4-47.9
	c0,0,2.5-5.9,3.6-7s-7.7-10.8-6.1-16.6c1.6-5.8,0-5.8-3.4-9.2s-1.7-16-1.7-16c-5-21.2-4.8-39,10.4-47.3l80-2L159.6,255.7z"/>
<circle class="st0" cx="99.9" cy="35.3" r="24.9"/>
<path class="st2" d="M108,66.5l-25-2l-5,9c0,0-19.4,7.1-29,19.1l8,85l6.4,42.2c0,0-7,7.2-6.2,8s1.6-0.8,0.8,1.6s-2.5-0.3-0.1,2.1
	s0.1,0.3-2.3,2.7s0,3.2,0,3.2s78.4,13.6,99.2-4L130.7,160l-1.9-34.5c-0.6-11.5-2.7-22.9-6.1-33.9c-1.8-6-5-11.8-10.4-15L108,66.5z"
	/>
<path class="st1" d="M120.4,22.2c1.9,1.4,3.4,3.4,4.1,5.7c0.3-3.8,0.3-7.5,0.1-11.3c-0.3-2.6-2.1-3.2-4.3-3.9
	c-2-0.7-3.9-6.1-4.5-8.7c-7.8-7.6-21.7-2.5-31,0.2c-5.1,1.4-8,3.3-8.3,4.4l-0.1,0.2l-0.2,0.1c-4,2-4.8,8.2-4.7,13.1
	c0.1,9.2,3.3,19.7,5.1,20.5c0.1,0.1,0.2,0,0.2,0l0,0c2.7-2.2,6,0.1,7.4,1.4c1.7-11.7,11.3-20.8,23.1-21.9c1.9-0.1,3.8-0.5,5.6-0.9
	c1-0.3,1.9-0.4,2.9-0.4C117.4,20.7,119,21.2,120.4,22.2z"/>
<path class="st0" d="M225.7,151.3c4.8,4,11.8,3.8,16.2-0.6c4.7-4.7,4.8-12.3,0.1-17c-4.7-4.7-12.3-4.8-17-0.1l-62.9-3.9l-20.2-24.8
	l-20.5,27.2l40.6,26L225.7,151.3z"/>
<path class="st2" d="M96.3,77.9c10.3-2.3,21,0.9,28.4,8.3c13.1,12.7,23.1,22.8,23.1,22.8s19.1,16.1,16.4,17.8
	c-4.8,3-7.2,21.7-10.6,29.6c-1.2,2.8-27.8-22.4-27.8-19.1c0,0-44.5-27.2-42.1-41.5S96.3,78,96.3,77.9z"/>
<path class="st0" d="M5.3,228.7c-4.1,4.7-4,11.7,0.3,16.2c4.6,4.9,12.2,5.1,17,0.5c4.9-4.6,5.1-12.2,0.5-17l5.2-62.8l25.3-19.7
	l-26.7-21L0,164.9L5.3,228.7z"/>
<path class="st2" d="M81.5,100.8c2.1,10.3-1.3,20.9-8.9,28.2c-13,12.9-23.3,22.7-23.3,22.7s-16.4,18.8-18.1,16
	c-2.8-4.8-21.5-7.6-29.3-11.2c-2.8-1.2,23-27.2,19.7-27.3c0,0,28.2-44,42.4-41.3S81.5,100.9,81.5,100.8z"/>
</svg>
