<svg xmlns="http://www.w3.org/2000/svg" xmlns:xlink="http://www.w3.org/1999/xlink" version="1.1" id="Layer_1" x="0px" y="0px" style="enable-background:new 0 0 804.1 578.1;" xml:space="preserve" viewBox="308.84 119.08 166.59 391.62">
<style type="text/css">
	.st0{fill:#6C63FF;}
	.st1{fill:#FFB8B8;}
	.st2{fill:#2F2E41;}
</style>
<path class="st0" d="M433.3,196.5c0,0-20.3-12.8-39.4,2.1l-12.8,133.2c0,0,48,37.3,59.7,2.1L433.3,196.5z"/>
<polygon class="st1" points="438.2,499.3 450.5,499.3 454.6,452.2 438.2,452 "/>
<path class="st2" d="M474.1,510.7l-38.5,0l0,0l0-14.9l0,0l23.6,0C467.5,495.8,474.1,502.5,474.1,510.7  C474.1,510.7,474.1,510.7,474.1,510.7L474.1,510.7L474.1,510.7z"/>
<polygon class="st1" points="393.9,499.3 381.7,499.3 375.8,452 393.9,452 "/>
<path class="st2" d="M372.9,495.8h23.6l0,0v14.9l0,0H358l0,0l0,0C358,502.5,364.7,495.8,372.9,495.8z"/>
<path class="st2" d="M464.7,332.4l-10.7,158.8l-16.5-0.5l-21.9-127.4l-20.3,125.8l-19.2,1.1L370.9,326  C370.9,326,451.9,307.9,464.7,332.4z"/>
<circle class="st1" cx="414.4" cy="158.4" r="24.6"/>
<path class="st2" d="M429.6,191.7l6.4,4.3c0,0,26.6,0,28.8,16s8,125.3,1.6,125.3s-7.5-8.5-7.5-8.5s-4.3,1.1-12.8,9.6  s-13.9,8.5-17.1-4.3s-24.5-110.9-4.3-129L429.6,191.7z"/>
<path class="st2" d="M398.6,191.7l-6.4,4.3c0,0-26.6,0-28.8,16s-8,125.3-1.6,125.3s7.5-8.5,7.5-8.5s4.3,1.1,12.8,9.6  s13.9,8.5,17.1-4.3s24.5-110.9,4.3-129L398.6,191.7z"/>
<path class="st2" d="M434.4,173.4c5.1-5.4,4.9-13.8-0.5-18.9c-2.6-2.5-6.1-3.8-9.6-3.7c-3.4,0.1-6.6,1.5-9.8,2.5  c-4.9,1.7-10.2,2.1-15.3,1.4c-5.2-0.8-9.8-3.6-13-7.7c-3-4.2-4-10-1.8-14.7c2.5-5.4,8.3-8.4,13.7-10.8c2.2-1.1,4.5-1.9,7-2.3  c2.5-0.4,5,0.2,6.9,1.7c1.5,1.3,2.4,3.3,4.1,4.4c1.9,1.3,4.3,1.3,6.6,1.5c13.9,1.4,24,13.7,22.6,27.6c-0.7,7.2-4.5,13.7-10.4,18  L434.4,173.4z"/>
<path class="st1" d="M309.1,322.9c-1.3-5.8,2.4-11.5,8.2-12.8c0.6-0.1,1.2-0.2,1.9-0.2l16.3-23l10.5,10.7L330.4,321  c-0.2,6-5.2,10.7-11.1,10.5C314.3,331.3,310.1,327.7,309.1,322.9L309.1,322.9z"/>
<path class="st1" d="M453.7,343.8c-4.3-4-4.6-10.8-0.5-15.2c0.4-0.5,0.9-0.9,1.4-1.3l0.3-28.2l14.8,2.8l0.5,28.1  c3.3,5,1.8,11.7-3.1,14.9C462.8,347.8,457.3,347.3,453.7,343.8z"/>
<path class="st2" d="M371.4,277.3l-4.2-66.9l-1.2-4.7c0,0-42.4,54.6-42.5,95.6c0,0,20.8,10.1,24,2.7  C348.7,301,353,296.6,371.4,277.3L371.4,277.3z"/>
<path class="st2" d="M461,210.3l3.8,2.4c0,0,13.7,60.5,10,101c0,0-21.9,10.1-25.1,2.7S461,210.3,461,210.3z"/>
</svg>