<?xml version="1.0" encoding="utf-8"?>
<!-- Generator: Adobe Illustrator 26.0.3, SVG Export Plug-In . SVG Version: 6.00 Build 0)  -->
<svg version="1.1" id="Layer_1" xmlns="http://www.w3.org/2000/svg" xmlns:xlink="http://www.w3.org/1999/xlink" x="0px" y="0px"
	 viewBox="0 0 122.2 372.7" style="enable-background:new 0 0 122.2 372.7;" xml:space="preserve">
<style type="text/css">
	.st0{fill:#FFFFFF;}
</style>
<path id="path_0ca707ea-2f2e-4101-0dd3-e777db25ce9c" pointer-events="all" class="st0" d="M28.7,73.1c0-0.2,0.1-0.5,0.2-0.7
	s0.2-0.4,0.4-0.6c0.2-0.2,0.3-0.4,0.5-0.5s0.4-0.3,0.6-0.4s0.5-0.2,0.7-0.2s0.5-0.1,0.8,0c0.2,0,0.5,0.1,0.7,0.1
	c0.2,0.1,0.5,0.2,0.7,0.3c0.2,0.1,0.4,0.3,0.6,0.5c0.2,0.2,0.3,0.4,0.5,0.6c0.1,0.2,0.2,0.4,0.3,0.7c0.1,0.2,0.1,0.5,0.1,0.7
	s0,1.4-0.1,3.4s-0.3,4.2-0.6,6.4c-0.3,2.3-0.7,4.7-1.2,7.2s-1,5.2-1.5,8c-0.6,2.9-1.1,5.9-1.7,9c-0.6,3.2-1,6.2-1.4,9.1
	s-0.7,5.7-0.9,8.4c-0.2,2.7-0.4,5.6-0.6,8.7s-0.3,6.2-0.4,9.4s-0.2,6.4-0.2,9.5s-0.1,6.2-0.1,9.1c0,2.9,0,5.8,0,8.5
	c0,2.8,0,5.4,0.1,8c0,2.6,0.1,5,0.3,7.4c0.2,2.4,0.4,4.6,0.8,6.7c0.4,2.1,0.8,4.2,1.3,6.3s1.1,4.3,1.8,6.5c0.7,2.2,1.4,4.4,2.2,6.6
	c0.8,2.2,1.8,4.4,2.8,6.7s2.2,4.7,3.4,7.3c1.2,2.5,2.6,5.2,4,7.8c1.4,2.7,2.8,5.1,4.2,7.3c1.3,2.2,2.6,4.2,3.8,6s2.3,3.4,3.4,4.9
	c1.1,1.5,2.1,2.8,3,4.1c0.9,1.2,2.2,2.9,3.9,5s3.2,3.8,4.4,5.1c1.3,1.3,1.4,2,0.4,2.1s-1.5,0.2-1.5,0.2s0.1-0.2,0.4-0.6
	s0.6-0.7,0.9-1c0.4-0.3,0.8-0.5,1.2-0.6c0.4-0.1,0.9-0.2,1.3-0.2c0.5,0,0.9,0.1,1.3,0.2c0.4,0.2,0.8,0.4,1.2,0.7
	c0.4,0.3,0.7,0.6,0.9,1c0.2,0.4,0.4,0.8,0.5,1.2c0.1,0.4,0.2,0.9,0.1,1.3c0,0.5-0.1,0.9-0.3,1.3c-0.2,0.4-0.4,0.8-0.7,1.1
	c-0.3,0.3-0.7,0.6-1,0.8c-0.4,0.2-0.8,0.4-1.3,0.5c-0.4,0.1-0.9,0.1-1.3,0c-0.5-0.1-0.9-0.2-1.3-0.4c-0.4-0.2-0.8-0.5-1.1-0.8
	c-0.3-0.3-0.6-0.7-0.8-1.1s-0.3-0.8-0.4-1.3s-0.1-0.9,0-1.3s0.2-0.9,0.5-1.3c0.2-0.4,0.5-0.8,0.8-1.1c0.3-0.3,0.7-0.6,1.1-0.7
	c0.4-0.2,0.8-0.3,1.3-0.3s0.9,0,1.3,0.1s0.9,0.3,1.2,0.5c0.4,0.2,0.7,0.5,1,0.9s0.5,0.7,0.7,1.2c0.2,0.4,0.2,0.9,0.3,1.3
	c0,0.5,0,0.9-0.2,1.3c-0.1,0.4-0.8,1.3-2.1,2.5c-1.3,1.3-2.8,1.7-4.5,1.3c-1.7-0.4-3.2-1.2-4.3-2.5c-1.2-1.3-2.4-2.8-3.6-4.6
	c-1.2-1.8-2.3-3.3-3.1-4.6c-0.9-1.3-1.7-2.6-2.6-3.9c-0.9-1.3-1.8-2.8-2.8-4.4s-2.1-3.3-3.2-5.2c-1.1-1.9-2.4-3.9-3.7-6.2
	s-2.8-4.7-4.4-7.4c-1.6-2.7-3.1-5.3-4.4-7.9c-1.4-2.6-2.6-5.1-3.7-7.5s-2.1-4.8-3-7.2c-0.9-2.3-1.6-4.7-2.3-7
	c-0.6-2.3-1.2-4.6-1.7-6.9c-0.5-2.3-0.8-4.6-1.1-6.9c-0.3-2.3-0.5-4.7-0.5-7.1c-0.1-2.5-0.1-5-0.1-7.5c0-2.6,0.1-5.2,0.1-8
	s0-5.6,0-8.5s0-6,0-9.1s0-6.4,0.1-9.6c0-3.3,0.1-6.5,0.2-9.6s0.3-6.1,0.5-8.9s0.5-5.6,0.8-8.6s0.7-6.1,1.1-9.3
	c0.4-3.2,0.9-6.3,1.3-9.2c0.4-2.9,0.9-5.5,1.3-8c0.4-2.4,0.8-4.7,1.1-6.8c0.3-2.1,0.6-4.1,0.7-6.1c0.2-2,0.2-3,0.2-3
	S28.6,73.4,28.7,73.1z"/>
<path id="path_27f37ae9-c6d0-423c-370a-1e6fd6aacaef" pointer-events="all" class="st0" d="M66.2,232.3c0,0-0.1-0.2-0.2-0.5
	s-0.2-0.6-0.2-1c0-0.3,0-0.7,0-1c0.1-0.3,0.1-0.7,0.3-1c0.1-0.3,0.3-0.6,0.5-0.9c0.2-0.3,0.4-0.5,0.7-0.7c0.3-0.2,0.5-0.4,0.8-0.5
	s0.6-0.2,0.9-0.3s0.7-0.1,1-0.1s0.7,0.1,1,0.2c0.3,0.1,0.6,0.2,0.9,0.4s0.6,0.4,0.8,0.6c0.2,0.2,0.5,0.5,0.6,0.8
	c0.2,0.3,0.7,1.5,1.7,3.6c0.9,2.1,1.9,4.1,3,6c1,1.9,2.2,3.9,3.5,6s2.6,4.3,4,6.5s2.7,4.2,3.9,6c1.2,1.8,2.5,3.6,4,5.6
	c1.4,1.9,2.7,3.5,3.8,4.8c1.1,1.3,2,2.9,2.9,4.8s0.7,3.5-0.4,4.7s-2.7,2.3-4.8,3.1c-2.1,0.8-4.4,1.9-7.1,3.2c-2.7,1.3-5,2.4-6.7,3.3
	c-1.8,0.9-3.5,1.7-5.1,2.6c-1.6,0.8-3.2,1.6-4.6,2.4s-3.2,1.8-5.4,3.1c-2.2,1.3-4.2,2.5-5.9,3.6s-3.2,2.1-4.4,3s-1.8,1.4-1.8,1.3
	c0,0-0.1,0.1-0.3,0.4c-0.3,0.3-0.6,0.5-0.9,0.8c-0.3,0.2-0.7,0.4-1,0.5c-0.4,0.1-0.7,0.2-1.1,0.2c-0.4,0-0.8,0-1.2,0
	s-0.8-0.2-1.1-0.3c-0.4-0.1-0.7-0.3-1-0.6c-0.3-0.2-0.6-0.5-0.9-0.8c-0.3-0.3-0.5-0.6-0.6-1c-0.2-0.4-0.3-0.7-0.4-1.1
	c-0.1-0.4-0.1-0.8-0.1-1.2c0-0.4,0.1-0.8,0.2-1.2c0.1-0.4,0.3-0.7,0.4-1.1c0.2-0.3,0.4-0.8,0.8-1.3c0.3-0.6,0.5-0.8,0.5-0.8
	s0.2-0.2,0.6-0.6c0.4-0.4,0.8-0.7,1.2-1c0.5-0.2,1-0.4,1.5-0.5s1-0.1,1.6,0s1,0.2,1.5,0.5c0.5,0.2,0.9,0.6,1.3,0.9
	c0.4,0.4,0.7,0.8,0.9,1.3s0.4,1,0.4,1.5c0.1,0.5,0,1.1-0.1,1.6s-0.3,1-0.6,1.5s-0.6,0.9-1,1.2c-0.4,0.3-0.9,0.6-1.3,0.8
	c-0.5,0.2-1,0.3-1.5,0.3s-1.1,0-1.6-0.2c-0.5-0.1-1-0.4-1.4-0.7c-0.4-0.3-0.8-0.7-1.1-1.1s-0.6-0.9-0.7-1.4c-0.2-0.5-0.3-1-0.3-1.6
	c0-0.5,0.1-1,0.3-1.6c0.2-0.5,0.4-1,0.7-1.4s0.7-0.8,1.1-1.1c0.4-0.3,0.9-0.5,1.4-0.7c0.5-0.1,1-0.2,1.6-0.2c0.5,0,1,0.1,1.5,0.3
	c0.5,0.2,0.9,0.5,1.3,0.8s0.7,0.7,1,1.2s0.5,0.9,0.6,1.5c0.1,0.5,0.1,1,0.1,1.6c-0.1,0.5-0.2,1-0.4,1.5s-0.5,1-1,1.7
	c-0.4,0.6-0.7,1.1-1,1.4s-0.6,0.5-0.9,0.8c-0.3,0.2-0.7,0.4-1,0.5c-0.4,0.1-0.7,0.2-1.1,0.2c-0.4,0-0.8,0-1.2,0s-0.8-0.2-1.1-0.3
	c-0.4-0.1-0.7-0.3-1-0.6c-0.3-0.2-0.6-0.5-0.9-0.8c-0.3-0.3-0.5-0.6-0.6-1c-0.2-0.4-0.3-0.7-0.4-1.1s-0.1-0.8-0.1-1.2
	c0-0.4,0.1-0.8,0.2-1.2c0.1-0.4,0.3-0.7,0.4-1.1c0.2-0.3,0.7-0.9,1.5-1.6s1.9-1.5,3.3-2.4c1.4-0.8,3-1.8,4.9-2.9s3.9-2.3,6.3-3.5
	c2.3-1.3,4.2-2.3,5.7-3.1c1.4-0.8,3-1.6,4.6-2.5s3.3-1.8,5.1-2.8c1.8-1,3.4-1.8,5-2.6c1.5-0.8,3.5-1.7,5.8-2.8
	c2.3-1.1,4.4-1.8,6.2-2.2c1.8-0.4,2,0,0.6,1.3s-2.7,1.3-3.7-0.2s-2.2-3.2-3.5-5.3c-1.3-2.1-2.6-4-3.8-5.8c-1.2-1.8-2.6-3.8-4.1-6
	s-3-4.3-4.4-6.5c-1.4-2.1-2.7-4.2-3.9-6.2c-1.2-2-2.3-4.1-3.4-6.1C66.7,233.3,66.2,232.3,66.2,232.3L66.2,232.3z"/>
</svg>
