<svg xmlns="http://www.w3.org/2000/svg" viewBox="856.66 228.62 202.25 452.67" width="122.25" height="372.67"><path id="path_0ca707ea-2f2e-4101-0dd3-e777db25ce9c" d="M 65.54,-0.31 Q 65.54,-0.31 65.93,4.69 66.33,9.70 67.16,14.86 68.00,20.02 69.02,26.09 70.04,32.15 71.11,39.30 72.18,46.44 73.24,54.46 74.29,62.47 75.05,69.87 75.81,77.26 76.38,84.14 76.95,91.03 77.22,98.82 77.48,106.61 77.56,114.75 77.65,122.89 77.66,130.70 77.68,138.52 77.70,145.79 77.72,153.06 77.78,159.92 77.84,166.79 77.94,173.15 78.04,179.51 77.85,185.59 77.67,191.68 76.98,197.39 76.30,203.10 75.15,208.73 74.00,214.37 72.39,220.16 70.77,225.95 68.63,231.78 66.48,237.61 63.70,243.61 60.93,249.61 57.53,256.01 54.13,262.42 50.20,269.11 46.27,275.80 42.96,281.40 39.66,287.00 36.85,291.66 34.05,296.33 31.58,300.27 29.10,304.22 26.98,307.53 24.85,310.85 22.73,314.02 20.62,317.20 17.52,321.66 14.43,326.12 11.50,329.28 8.57,332.44 4.31,333.39 0.04,334.33 -3.11,331.20 -6.26,328.08 -6.59,326.99 -6.91,325.91 -6.87,324.79 -6.84,323.66 -6.44,322.60 -6.04,321.54 -5.33,320.67 -4.62,319.79 -3.67,319.19 -2.71,318.59 -1.61,318.33 -0.52,318.06 0.60,318.16 1.72,318.26 2.75,318.71 3.79,319.16 4.62,319.92 5.46,320.68 6.01,321.67 6.56,322.65 6.76,323.76 6.97,324.87 6.81,325.99 6.65,327.10 6.14,328.11 5.63,329.12 4.83,329.91 4.03,330.71 3.01,331.20 2.00,331.70 0.88,331.84 -0.23,331.99 -1.33,331.77 -2.44,331.55 -3.42,330.98 -4.40,330.42 -5.15,329.58 -5.90,328.73 -6.33,327.69 -6.77,326.65 -6.86,325.53 -6.94,324.40 -6.66,323.31 -6.38,322.22 -5.77,321.27 -5.16,320.32 -4.27,319.62 -3.39,318.92 -2.33,318.54 -1.27,318.16 -0.14,318.13 0.98,318.11 2.06,318.45 3.13,318.79 4.05,319.45 4.96,320.12 5.61,321.04 6.26,321.96 6.26,321.96 6.26,321.95 3.75,321.68 1.24,321.40 4.41,318.21 7.59,315.03 11.75,309.81 15.92,304.60 18.25,301.53 20.59,298.47 23.24,294.81 25.90,291.16 28.86,286.73 31.81,282.31 35.12,276.85 38.44,271.38 42.03,264.73 45.61,258.07 48.71,251.75 51.80,245.43 54.38,239.74 56.96,234.05 59.03,228.60 61.10,223.16 62.73,217.69 64.36,212.22 65.63,206.99 66.90,201.75 67.79,196.49 68.67,191.24 69.07,185.38 69.46,179.52 69.55,173.16 69.63,166.80 69.67,159.94 69.71,153.09 69.67,145.84 69.64,138.59 69.53,130.81 69.41,123.04 69.20,115.02 68.98,107.00 68.53,99.39 68.08,91.77 67.51,85.03 66.95,78.29 66.01,71.09 65.07,63.89 63.69,56.03 62.30,48.18 60.88,41.10 59.46,34.02 58.32,27.84 57.18,21.66 56.38,16.00 55.57,10.35 55.36,5.33 55.15,0.31 55.19,-0.31 55.23,-0.93 55.42,-1.53 55.60,-2.13 55.93,-2.67 56.25,-3.20 56.70,-3.65 57.14,-4.09 57.68,-4.41 58.21,-4.74 58.81,-4.92 59.41,-5.11 60.03,-5.15 60.66,-5.19 61.28,-5.07 61.89,-4.96 62.47,-4.70 63.04,-4.45 63.53,-4.06 64.02,-3.67 64.41,-3.18 64.80,-2.68 65.05,-2.11 65.31,-1.54 65.42,-0.92 65.54,-0.31 65.54,-0.31 Z" fill="#000000" stroke="transparent" stroke-width="0" stroke-linejoin="round" stroke-linecap="round" pointer-events="all" transform="translate(945.15, 268.62)"/><path id="path_27f37ae9-c6d0-423c-370a-1e6fd6aacaef" d="M 51.93,2.96 Q 51.93,2.96 49.34,8.06 46.76,13.17 43.75,18.22 40.74,23.26 37.22,28.53 33.71,33.80 29.92,39.21 26.13,44.61 23.10,49.12 20.06,53.63 16.82,58.77 13.59,63.90 11.07,67.53 8.56,71.15 5.01,67.85 1.45,64.55 5.99,65.62 10.54,66.69 16.31,69.31 22.08,71.94 25.89,73.91 29.69,75.89 34.09,78.27 38.48,80.66 42.55,82.87 46.62,85.08 50.19,86.98 53.75,88.89 59.54,92.08 65.33,95.27 69.93,97.94 74.53,100.62 77.96,102.71 81.40,104.81 83.37,106.61 85.33,108.41 85.81,109.26 86.28,110.10 86.54,111.04 86.79,111.98 86.82,112.95 86.84,113.92 86.63,114.87 86.42,115.82 86.00,116.69 85.57,117.56 84.94,118.30 84.32,119.04 83.53,119.62 82.75,120.19 81.85,120.55 80.95,120.92 79.99,121.06 79.03,121.20 78.06,121.11 77.09,121.02 76.18,120.70 75.26,120.38 74.45,119.85 73.63,119.31 72.97,118.60 72.31,117.89 71.29,116.35 70.26,114.81 69.71,113.61 69.16,112.41 69.02,111.10 68.88,109.79 69.17,108.50 69.45,107.22 70.13,106.09 70.81,104.96 71.82,104.11 72.83,103.26 74.05,102.77 75.28,102.28 76.59,102.22 77.91,102.15 79.18,102.50 80.45,102.86 81.54,103.60 82.63,104.34 83.42,105.39 84.22,106.44 84.64,107.69 85.06,108.94 85.06,110.26 85.05,111.58 84.63,112.83 84.21,114.07 83.41,115.12 82.61,116.17 81.51,116.91 80.42,117.65 79.15,118.00 77.88,118.35 76.56,118.27 75.25,118.20 74.02,117.71 72.80,117.22 71.80,116.36 70.80,115.51 70.12,114.38 69.44,113.25 69.16,111.96 68.88,110.67 69.02,109.36 69.17,108.05 69.72,106.85 70.28,105.66 71.19,104.70 72.10,103.75 73.26,103.13 74.43,102.52 75.73,102.31 77.03,102.10 78.33,102.31 79.63,102.53 80.80,103.15 81.96,103.77 82.86,104.73 83.77,105.69 83.77,105.69 83.77,105.68 84.55,107.05 85.33,108.41 85.81,109.25 86.28,110.10 86.54,111.04 86.79,111.98 86.82,112.95 86.84,113.92 86.63,114.87 86.43,115.81 86.00,116.69 85.57,117.56 84.94,118.30 84.32,119.04 83.53,119.62 82.75,120.19 81.85,120.55 80.95,120.92 79.99,121.06 79.03,121.20 78.06,121.11 77.09,121.02 76.18,120.70 75.26,120.38 74.45,119.85 73.63,119.32 72.97,118.60 72.31,117.89 72.42,117.97 72.53,118.04 69.52,115.78 66.52,113.53 62.19,110.76 57.86,107.98 52.40,104.77 46.95,101.56 43.43,99.67 39.91,97.78 35.87,95.70 31.82,93.63 27.36,91.46 22.91,89.30 16.20,86.00 9.50,82.70 4.39,80.63 -0.71,78.56 -3.50,75.47 -6.29,72.38 -4.15,67.65 -2.02,62.91 0.65,59.76 3.33,56.62 6.90,51.88 10.47,47.15 13.49,42.69 16.51,38.23 19.95,32.75 23.39,27.27 26.50,22.06 29.62,16.85 32.21,12.17 34.80,7.50 37.12,2.27 39.44,-2.96 39.89,-3.66 40.33,-4.36 40.94,-4.94 41.54,-5.52 42.26,-5.93 42.98,-6.35 43.78,-6.58 44.58,-6.81 45.41,-6.85 46.24,-6.88 47.06,-6.71 47.87,-6.55 48.62,-6.19 49.38,-5.83 50.02,-5.31 50.67,-4.78 51.17,-4.11 51.67,-3.45 51.99,-2.68 52.32,-1.92 52.45,-1.09 52.59,-0.27 52.52,0.55 52.45,1.38 52.19,2.17 51.92,2.96 51.92,2.96 Z" fill="#000000" stroke="transparent" stroke-width="0" stroke-linejoin="round" stroke-linecap="round" pointer-events="all" transform="translate(896.66, 528.04)"/></svg>